%TF.GenerationSoftware,KiCad,Pcbnew,(5.1.9-0-10_14)*%
%TF.CreationDate,2021-10-14T21:57:33+01:00*%
%TF.ProjectId,edoxpcb,65646f78-7063-4622-9e6b-696361645f70,rev?*%
%TF.SameCoordinates,Original*%
%TF.FileFunction,Paste,Top*%
%TF.FilePolarity,Positive*%
%FSLAX46Y46*%
G04 Gerber Fmt 4.6, Leading zero omitted, Abs format (unit mm)*
G04 Created by KiCad (PCBNEW (5.1.9-0-10_14)) date 2021-10-14 21:57:33*
%MOMM*%
%LPD*%
G01*
G04 APERTURE LIST*
%ADD10R,2.550000X2.500000*%
%ADD11C,0.100000*%
%ADD12R,1.300000X0.950000*%
G04 APERTURE END LIST*
D10*
%TO.C,SW25*%
X74631536Y-42066447D03*
X61181536Y-39526447D03*
%TD*%
D11*
%TO.C,SW35*%
G36*
X92644206Y-87356213D02*
G01*
X94809270Y-88606213D01*
X93534270Y-90814577D01*
X91369206Y-89564577D01*
X92644206Y-87356213D01*
G37*
G36*
X101568910Y-76978171D02*
G01*
X103733974Y-78228171D01*
X102458974Y-80436535D01*
X100293910Y-79186535D01*
X101568910Y-76978171D01*
G37*
%TD*%
%TO.C,SW34*%
G36*
X76146208Y-77831214D02*
G01*
X78311272Y-79081214D01*
X77036272Y-81289578D01*
X74871208Y-80039578D01*
X76146208Y-77831214D01*
G37*
G36*
X85070912Y-67453172D02*
G01*
X87235976Y-68703172D01*
X85960976Y-70911536D01*
X83795912Y-69661536D01*
X85070912Y-67453172D01*
G37*
%TD*%
%TO.C,SW33*%
G36*
X60783066Y-65255315D02*
G01*
X61430113Y-62840500D01*
X63893224Y-63500489D01*
X63246177Y-65915304D01*
X60783066Y-65255315D01*
G37*
G36*
X48448764Y-59320747D02*
G01*
X49095811Y-56905932D01*
X51558922Y-57565921D01*
X50911875Y-59980736D01*
X48448764Y-59320747D01*
G37*
%TD*%
D10*
%TO.C,SW24*%
X55581532Y-40161449D03*
X42131532Y-37621449D03*
%TD*%
%TO.C,SW23*%
X36531535Y-37621449D03*
X23081535Y-35081449D03*
%TD*%
%TO.C,SW22*%
X17481532Y-40161449D03*
X4031532Y-37621449D03*
%TD*%
%TO.C,SW21*%
X-1568468Y-44606449D03*
X-15018468Y-42066449D03*
%TD*%
%TO.C,SW20*%
X-20618468Y-44606449D03*
X-34068468Y-42066449D03*
%TD*%
%TO.C,SW15*%
X74631534Y-23016446D03*
X61181534Y-20476446D03*
%TD*%
%TO.C,SW14*%
X55581532Y-21111449D03*
X42131532Y-18571449D03*
%TD*%
%TO.C,SW13*%
X36531535Y-18571449D03*
X23081535Y-16031449D03*
%TD*%
%TO.C,SW12*%
X17481535Y-21111450D03*
X4031535Y-18571450D03*
%TD*%
%TO.C,SW11*%
X-1568469Y-25556449D03*
X-15018469Y-23016449D03*
%TD*%
%TO.C,SW10*%
X-20618468Y-25556449D03*
X-34068468Y-23016449D03*
%TD*%
%TO.C,SW5*%
X74631531Y-3966449D03*
X61181531Y-1426449D03*
%TD*%
%TO.C,SW4*%
X55581532Y-2061451D03*
X42131532Y478549D03*
%TD*%
%TO.C,SW3*%
X36531534Y478550D03*
X23081534Y3018550D03*
%TD*%
%TO.C,SW2*%
X17481536Y-2061450D03*
X4031536Y478550D03*
%TD*%
%TO.C,SW1*%
X-1568469Y-6506451D03*
X-15018469Y-3966451D03*
%TD*%
%TO.C,SW0*%
X-20618464Y-6506449D03*
X-34068464Y-3966449D03*
%TD*%
D11*
%TO.C,D35*%
G36*
X100386312Y-73616491D02*
G01*
X100861312Y-72793767D01*
X101987146Y-73443767D01*
X101512146Y-74266491D01*
X100386312Y-73616491D01*
G37*
G36*
X97311922Y-71841491D02*
G01*
X97786922Y-71018767D01*
X98912756Y-71668767D01*
X98437756Y-72491491D01*
X97311922Y-71841491D01*
G37*
%TD*%
%TO.C,D34*%
G36*
X83933109Y-64117230D02*
G01*
X84408109Y-63294506D01*
X85533943Y-63944506D01*
X85058943Y-64767230D01*
X83933109Y-64117230D01*
G37*
G36*
X80858719Y-62342230D02*
G01*
X81333719Y-61519506D01*
X82459553Y-62169506D01*
X81984553Y-62992230D01*
X80858719Y-62342230D01*
G37*
%TD*%
%TO.C,D33*%
G36*
X55744355Y-56202742D02*
G01*
X55498477Y-57120371D01*
X54242773Y-56783906D01*
X54488651Y-55866277D01*
X55744355Y-56202742D01*
G37*
G36*
X59173391Y-57121550D02*
G01*
X58927513Y-58039179D01*
X57671809Y-57702714D01*
X57917687Y-56785085D01*
X59173391Y-57121550D01*
G37*
%TD*%
D12*
%TO.C,D32*%
X27396534Y-50956449D03*
X30946534Y-50956449D03*
%TD*%
%TO.C,D25*%
X65496534Y-36351450D03*
X69046534Y-36351450D03*
%TD*%
%TO.C,D24*%
X46446532Y-34446448D03*
X49996532Y-34446448D03*
%TD*%
%TO.C,D23*%
X27396535Y-31906451D03*
X30946535Y-31906451D03*
%TD*%
%TO.C,D22*%
X8346534Y-34446447D03*
X11896534Y-34446447D03*
%TD*%
%TO.C,D21*%
X-10703469Y-38891448D03*
X-7153469Y-38891448D03*
%TD*%
%TO.C,D20*%
X-29753468Y-38891447D03*
X-26203468Y-38891447D03*
%TD*%
%TO.C,D15*%
X65496534Y-33811446D03*
X69046534Y-33811446D03*
%TD*%
%TO.C,D14*%
X46446534Y-31906448D03*
X49996534Y-31906448D03*
%TD*%
%TO.C,D13*%
X27396535Y-29366447D03*
X30946535Y-29366447D03*
%TD*%
%TO.C,D12*%
X8346534Y-31906449D03*
X11896534Y-31906449D03*
%TD*%
%TO.C,D11*%
X-10703469Y-36351444D03*
X-7153469Y-36351444D03*
%TD*%
%TO.C,D10*%
X-29753468Y-36351448D03*
X-26203468Y-36351448D03*
%TD*%
%TO.C,D5*%
X65496533Y-14761449D03*
X69046533Y-14761449D03*
%TD*%
%TO.C,D4*%
X46446533Y-12856447D03*
X49996533Y-12856447D03*
%TD*%
%TO.C,D3*%
X27396531Y-10316447D03*
X30946531Y-10316447D03*
%TD*%
%TO.C,D2*%
X8346533Y-12856448D03*
X11896533Y-12856448D03*
%TD*%
%TO.C,D1*%
X-10703468Y-17301447D03*
X-7153468Y-17301447D03*
%TD*%
%TO.C,D0*%
X-29753465Y-17301451D03*
X-26203465Y-17301451D03*
%TD*%
M02*
