%TF.GenerationSoftware,KiCad,Pcbnew,(5.1.9-0-10_14)*%
%TF.CreationDate,2021-10-14T21:57:33+01:00*%
%TF.ProjectId,edoxpcb,65646f78-7063-4622-9e6b-696361645f70,rev?*%
%TF.SameCoordinates,Original*%
%TF.FileFunction,Legend,Bot*%
%TF.FilePolarity,Positive*%
%FSLAX46Y46*%
G04 Gerber Fmt 4.6, Leading zero omitted, Abs format (unit mm)*
G04 Created by KiCad (PCBNEW (5.1.9-0-10_14)) date 2021-10-14 21:57:33*
%MOMM*%
%LPD*%
G01*
G04 APERTURE LIST*
%ADD10C,0.120000*%
%ADD11C,0.150000*%
G04 APERTURE END LIST*
D10*
%TO.C,SW32*%
X29672774Y-59212730D02*
X28672774Y-59212730D01*
X29172774Y-58712730D02*
X29172774Y-59712730D01*
X32172774Y-59212730D02*
G75*
G03*
X32172774Y-59212730I-3000000J0D01*
G01*
D11*
%TO.C,SW25*%
X66406536Y-42066447D02*
X72136536Y-42066447D01*
X61136536Y-39526447D02*
X61136536Y-43741447D01*
X62811536Y-37851447D02*
X72136536Y-37851447D01*
X61136536Y-43741447D02*
X64731536Y-43741447D01*
X72136536Y-37856447D02*
X72136536Y-42066447D01*
X62811536Y-37851447D02*
G75*
G03*
X61136536Y-39526447I0J-1675000D01*
G01*
X66406536Y-42066447D02*
G75*
G03*
X64731536Y-43741447I0J-1675000D01*
G01*
D10*
%TO.C,JPRSTB1*%
X86601533Y-15621449D02*
X85201533Y-15621449D01*
X84501533Y-16321449D02*
X84501533Y-16921449D01*
X85201533Y-17621449D02*
X86601533Y-17621449D01*
X87301533Y-16921449D02*
X87301533Y-16321449D01*
X87301533Y-16321449D02*
G75*
G03*
X86601533Y-15621449I-700000J0D01*
G01*
X86601533Y-17621449D02*
G75*
G03*
X87301533Y-16921449I0J700000D01*
G01*
X84501533Y-16921449D02*
G75*
G03*
X85201533Y-17621449I700000J0D01*
G01*
X85201533Y-15621449D02*
G75*
G03*
X84501533Y-16321449I0J-700000D01*
G01*
%TO.C,JPOVCCB1*%
X87747822Y-49015572D02*
X86535386Y-48315572D01*
X85579168Y-48571789D02*
X85279168Y-49091405D01*
X85535386Y-50047622D02*
X86747822Y-50747622D01*
X87704040Y-50491405D02*
X88004040Y-49971789D01*
X88004039Y-49971789D02*
G75*
G03*
X87747822Y-49015572I-606217J350000D01*
G01*
X86747822Y-50747623D02*
G75*
G03*
X87704040Y-50491405I350000J606218D01*
G01*
X85279169Y-49091405D02*
G75*
G03*
X85535386Y-50047622I606217J-350000D01*
G01*
X86535386Y-48315571D02*
G75*
G03*
X85579168Y-48571789I-350000J-606218D01*
G01*
%TO.C,JPOSDAB1*%
X85207819Y-53414982D02*
X83995383Y-52714982D01*
X83039165Y-52971199D02*
X82739165Y-53490815D01*
X82995383Y-54447032D02*
X84207819Y-55147032D01*
X85164037Y-54890815D02*
X85464037Y-54371199D01*
X85464036Y-54371199D02*
G75*
G03*
X85207819Y-53414982I-606217J350000D01*
G01*
X84207819Y-55147033D02*
G75*
G03*
X85164037Y-54890815I350000J606218D01*
G01*
X82739166Y-53490815D02*
G75*
G03*
X82995383Y-54447032I606217J-350000D01*
G01*
X83995383Y-52714981D02*
G75*
G03*
X83039165Y-52971199I-350000J-606218D01*
G01*
%TO.C,JPOSCLB1*%
X86477818Y-51215278D02*
X85265382Y-50515278D01*
X84309164Y-50771495D02*
X84009164Y-51291111D01*
X84265382Y-52247328D02*
X85477818Y-52947328D01*
X86434036Y-52691111D02*
X86734036Y-52171495D01*
X86734035Y-52171495D02*
G75*
G03*
X86477818Y-51215278I-606217J350000D01*
G01*
X85477818Y-52947329D02*
G75*
G03*
X86434036Y-52691111I350000J606218D01*
G01*
X84009165Y-51291111D02*
G75*
G03*
X84265382Y-52247328I606217J-350000D01*
G01*
X85265382Y-50515277D02*
G75*
G03*
X84309164Y-50771495I-350000J-606218D01*
G01*
%TO.C,JPOGNDB1*%
X89017820Y-46815869D02*
X87805384Y-46115869D01*
X86849166Y-46372086D02*
X86549166Y-46891702D01*
X86805384Y-47847919D02*
X88017820Y-48547919D01*
X88974038Y-48291702D02*
X89274038Y-47772086D01*
X89274037Y-47772086D02*
G75*
G03*
X89017820Y-46815869I-606217J350000D01*
G01*
X88017820Y-48547920D02*
G75*
G03*
X88974038Y-48291702I350000J606218D01*
G01*
X86549167Y-46891702D02*
G75*
G03*
X86805384Y-47847919I606217J-350000D01*
G01*
X87805384Y-46115868D02*
G75*
G03*
X86849166Y-46372086I-350000J-606218D01*
G01*
D11*
%TO.C,SW35*%
X97201738Y-81962336D02*
X94336738Y-86924662D01*
X102036442Y-78668382D02*
X98386145Y-76560882D01*
X102649535Y-80956475D02*
X97987035Y-89032162D01*
X98386145Y-76560882D02*
X96588645Y-79674243D01*
X97982704Y-89029662D02*
X94336738Y-86924662D01*
X102649535Y-80956475D02*
G75*
G03*
X102036442Y-78668382I-1450593J837500D01*
G01*
X97201738Y-81962336D02*
G75*
G03*
X96588645Y-79674243I-1450593J837500D01*
G01*
%TO.C,SW34*%
X80703740Y-72437337D02*
X77838740Y-77399663D01*
X85538444Y-69143383D02*
X81888147Y-67035883D01*
X86151537Y-71431476D02*
X81489037Y-79507163D01*
X81888147Y-67035883D02*
X80090647Y-70149244D01*
X81484706Y-79504663D02*
X77838740Y-77399663D01*
X86151537Y-71431476D02*
G75*
G03*
X85538444Y-69143383I-1450593J837500D01*
G01*
X80703740Y-72437337D02*
G75*
G03*
X80090647Y-70149244I-1450593J837500D01*
G01*
%TO.C,SW33*%
X54393406Y-62249115D02*
X59928161Y-63732148D01*
X49960377Y-58431687D02*
X48869455Y-62503064D01*
X52011824Y-57247283D02*
X61019083Y-59660771D01*
X48869455Y-62503064D02*
X52341958Y-63433519D01*
X61017789Y-59665600D02*
X59928161Y-63732148D01*
X52011825Y-57247283D02*
G75*
G03*
X49960377Y-58431687I-433522J-1617926D01*
G01*
X54393406Y-62249115D02*
G75*
G03*
X52341958Y-63433519I-433522J-1617926D01*
G01*
%TO.C,SW24*%
X47356532Y-40161449D02*
X53086532Y-40161449D01*
X42086532Y-37621449D02*
X42086532Y-41836449D01*
X43761532Y-35946449D02*
X53086532Y-35946449D01*
X42086532Y-41836449D02*
X45681532Y-41836449D01*
X53086532Y-35951449D02*
X53086532Y-40161449D01*
X43761532Y-35946449D02*
G75*
G03*
X42086532Y-37621449I0J-1675000D01*
G01*
X47356532Y-40161449D02*
G75*
G03*
X45681532Y-41836449I0J-1675000D01*
G01*
%TO.C,SW23*%
X28306535Y-37621449D02*
X34036535Y-37621449D01*
X23036535Y-35081449D02*
X23036535Y-39296449D01*
X24711535Y-33406449D02*
X34036535Y-33406449D01*
X23036535Y-39296449D02*
X26631535Y-39296449D01*
X34036535Y-33411449D02*
X34036535Y-37621449D01*
X24711535Y-33406449D02*
G75*
G03*
X23036535Y-35081449I0J-1675000D01*
G01*
X28306535Y-37621449D02*
G75*
G03*
X26631535Y-39296449I0J-1675000D01*
G01*
%TO.C,SW22*%
X9256532Y-40161449D02*
X14986532Y-40161449D01*
X3986532Y-37621449D02*
X3986532Y-41836449D01*
X5661532Y-35946449D02*
X14986532Y-35946449D01*
X3986532Y-41836449D02*
X7581532Y-41836449D01*
X14986532Y-35951449D02*
X14986532Y-40161449D01*
X5661532Y-35946449D02*
G75*
G03*
X3986532Y-37621449I0J-1675000D01*
G01*
X9256532Y-40161449D02*
G75*
G03*
X7581532Y-41836449I0J-1675000D01*
G01*
%TO.C,SW21*%
X-9793468Y-44606449D02*
X-4063468Y-44606449D01*
X-15063468Y-42066449D02*
X-15063468Y-46281449D01*
X-13388468Y-40391449D02*
X-4063468Y-40391449D01*
X-15063468Y-46281449D02*
X-11468468Y-46281449D01*
X-4063468Y-40396449D02*
X-4063468Y-44606449D01*
X-13388468Y-40391449D02*
G75*
G03*
X-15063468Y-42066449I0J-1675000D01*
G01*
X-9793468Y-44606449D02*
G75*
G03*
X-11468468Y-46281449I0J-1675000D01*
G01*
%TO.C,SW20*%
X-28843468Y-44606449D02*
X-23113468Y-44606449D01*
X-34113468Y-42066449D02*
X-34113468Y-46281449D01*
X-32438468Y-40391449D02*
X-23113468Y-40391449D01*
X-34113468Y-46281449D02*
X-30518468Y-46281449D01*
X-23113468Y-40396449D02*
X-23113468Y-44606449D01*
X-32438468Y-40391449D02*
G75*
G03*
X-34113468Y-42066449I0J-1675000D01*
G01*
X-28843468Y-44606449D02*
G75*
G03*
X-30518468Y-46281449I0J-1675000D01*
G01*
%TO.C,SW15*%
X66406534Y-23016446D02*
X72136534Y-23016446D01*
X61136534Y-20476446D02*
X61136534Y-24691446D01*
X62811534Y-18801446D02*
X72136534Y-18801446D01*
X61136534Y-24691446D02*
X64731534Y-24691446D01*
X72136534Y-18806446D02*
X72136534Y-23016446D01*
X62811534Y-18801446D02*
G75*
G03*
X61136534Y-20476446I0J-1675000D01*
G01*
X66406534Y-23016446D02*
G75*
G03*
X64731534Y-24691446I0J-1675000D01*
G01*
%TO.C,SW14*%
X47356532Y-21111449D02*
X53086532Y-21111449D01*
X42086532Y-18571449D02*
X42086532Y-22786449D01*
X43761532Y-16896449D02*
X53086532Y-16896449D01*
X42086532Y-22786449D02*
X45681532Y-22786449D01*
X53086532Y-16901449D02*
X53086532Y-21111449D01*
X43761532Y-16896449D02*
G75*
G03*
X42086532Y-18571449I0J-1675000D01*
G01*
X47356532Y-21111449D02*
G75*
G03*
X45681532Y-22786449I0J-1675000D01*
G01*
%TO.C,SW13*%
X28306535Y-18571449D02*
X34036535Y-18571449D01*
X23036535Y-16031449D02*
X23036535Y-20246449D01*
X24711535Y-14356449D02*
X34036535Y-14356449D01*
X23036535Y-20246449D02*
X26631535Y-20246449D01*
X34036535Y-14361449D02*
X34036535Y-18571449D01*
X24711535Y-14356449D02*
G75*
G03*
X23036535Y-16031449I0J-1675000D01*
G01*
X28306535Y-18571449D02*
G75*
G03*
X26631535Y-20246449I0J-1675000D01*
G01*
%TO.C,SW12*%
X9256535Y-21111450D02*
X14986535Y-21111450D01*
X3986535Y-18571450D02*
X3986535Y-22786450D01*
X5661535Y-16896450D02*
X14986535Y-16896450D01*
X3986535Y-22786450D02*
X7581535Y-22786450D01*
X14986535Y-16901450D02*
X14986535Y-21111450D01*
X5661535Y-16896450D02*
G75*
G03*
X3986535Y-18571450I0J-1675000D01*
G01*
X9256535Y-21111450D02*
G75*
G03*
X7581535Y-22786450I0J-1675000D01*
G01*
%TO.C,SW11*%
X-9793469Y-25556449D02*
X-4063469Y-25556449D01*
X-15063469Y-23016449D02*
X-15063469Y-27231449D01*
X-13388469Y-21341449D02*
X-4063469Y-21341449D01*
X-15063469Y-27231449D02*
X-11468469Y-27231449D01*
X-4063469Y-21346449D02*
X-4063469Y-25556449D01*
X-13388469Y-21341449D02*
G75*
G03*
X-15063469Y-23016449I0J-1675000D01*
G01*
X-9793469Y-25556449D02*
G75*
G03*
X-11468469Y-27231449I0J-1675000D01*
G01*
%TO.C,SW10*%
X-28843468Y-25556449D02*
X-23113468Y-25556449D01*
X-34113468Y-23016449D02*
X-34113468Y-27231449D01*
X-32438468Y-21341449D02*
X-23113468Y-21341449D01*
X-34113468Y-27231449D02*
X-30518468Y-27231449D01*
X-23113468Y-21346449D02*
X-23113468Y-25556449D01*
X-32438468Y-21341449D02*
G75*
G03*
X-34113468Y-23016449I0J-1675000D01*
G01*
X-28843468Y-25556449D02*
G75*
G03*
X-30518468Y-27231449I0J-1675000D01*
G01*
%TO.C,SW5*%
X66406531Y-3966449D02*
X72136531Y-3966449D01*
X61136531Y-1426449D02*
X61136531Y-5641449D01*
X62811531Y248551D02*
X72136531Y248551D01*
X61136531Y-5641449D02*
X64731531Y-5641449D01*
X72136531Y243551D02*
X72136531Y-3966449D01*
X62811531Y248551D02*
G75*
G03*
X61136531Y-1426449I0J-1675000D01*
G01*
X66406531Y-3966449D02*
G75*
G03*
X64731531Y-5641449I0J-1675000D01*
G01*
%TO.C,SW4*%
X47356532Y-2061451D02*
X53086532Y-2061451D01*
X42086532Y478549D02*
X42086532Y-3736451D01*
X43761532Y2153549D02*
X53086532Y2153549D01*
X42086532Y-3736451D02*
X45681532Y-3736451D01*
X53086532Y2148549D02*
X53086532Y-2061451D01*
X43761532Y2153549D02*
G75*
G03*
X42086532Y478549I0J-1675000D01*
G01*
X47356532Y-2061451D02*
G75*
G03*
X45681532Y-3736451I0J-1675000D01*
G01*
%TO.C,SW3*%
X28306534Y478550D02*
X34036534Y478550D01*
X23036534Y3018550D02*
X23036534Y-1196450D01*
X24711534Y4693550D02*
X34036534Y4693550D01*
X23036534Y-1196450D02*
X26631534Y-1196450D01*
X34036534Y4688550D02*
X34036534Y478550D01*
X24711534Y4693550D02*
G75*
G03*
X23036534Y3018550I0J-1675000D01*
G01*
X28306534Y478550D02*
G75*
G03*
X26631534Y-1196450I0J-1675000D01*
G01*
%TO.C,SW2*%
X9256536Y-2061450D02*
X14986536Y-2061450D01*
X3986536Y478550D02*
X3986536Y-3736450D01*
X5661536Y2153550D02*
X14986536Y2153550D01*
X3986536Y-3736450D02*
X7581536Y-3736450D01*
X14986536Y2148550D02*
X14986536Y-2061450D01*
X5661536Y2153550D02*
G75*
G03*
X3986536Y478550I0J-1675000D01*
G01*
X9256536Y-2061450D02*
G75*
G03*
X7581536Y-3736450I0J-1675000D01*
G01*
%TO.C,SW1*%
X-9793469Y-6506451D02*
X-4063469Y-6506451D01*
X-15063469Y-3966451D02*
X-15063469Y-8181451D01*
X-13388469Y-2291451D02*
X-4063469Y-2291451D01*
X-15063469Y-8181451D02*
X-11468469Y-8181451D01*
X-4063469Y-2296451D02*
X-4063469Y-6506451D01*
X-13388469Y-2291451D02*
G75*
G03*
X-15063469Y-3966451I0J-1675000D01*
G01*
X-9793469Y-6506451D02*
G75*
G03*
X-11468469Y-8181451I0J-1675000D01*
G01*
%TO.C,SW0*%
X-28843464Y-6506449D02*
X-23113464Y-6506449D01*
X-34113464Y-3966449D02*
X-34113464Y-8181449D01*
X-32438464Y-2291449D02*
X-23113464Y-2291449D01*
X-34113464Y-8181449D02*
X-30518464Y-8181449D01*
X-23113464Y-2296449D02*
X-23113464Y-6506449D01*
X-32438464Y-2291449D02*
G75*
G03*
X-34113464Y-3966449I0J-1675000D01*
G01*
X-28843464Y-6506449D02*
G75*
G03*
X-30518464Y-8181449I0J-1675000D01*
G01*
D10*
%TO.C,JP-B1*%
X105175307Y-62011276D02*
X103962871Y-61311276D01*
X103006653Y-61567493D02*
X102706653Y-62087109D01*
X102962871Y-63043326D02*
X104175307Y-63743326D01*
X105131525Y-63487109D02*
X105431525Y-62967493D01*
X105431524Y-62967493D02*
G75*
G03*
X105175307Y-62011276I-606217J350000D01*
G01*
X104175307Y-63743327D02*
G75*
G03*
X105131525Y-63487109I350000J606218D01*
G01*
X102706654Y-62087109D02*
G75*
G03*
X102962871Y-63043326I606217J-350000D01*
G01*
X103962871Y-61311275D02*
G75*
G03*
X103006653Y-61567493I-350000J-606218D01*
G01*
%TO.C,JP+B1*%
X106445307Y-59811571D02*
X105232871Y-59111571D01*
X104276653Y-59367788D02*
X103976653Y-59887404D01*
X104232871Y-60843621D02*
X105445307Y-61543621D01*
X106401525Y-61287404D02*
X106701525Y-60767788D01*
X106701524Y-60767788D02*
G75*
G03*
X106445307Y-59811571I-606217J350000D01*
G01*
X105445307Y-61543622D02*
G75*
G03*
X106401525Y-61287404I350000J606218D01*
G01*
X103976654Y-59887404D02*
G75*
G03*
X104232871Y-60843621I606217J-350000D01*
G01*
X105232871Y-59111570D02*
G75*
G03*
X104276653Y-59367788I-350000J-606218D01*
G01*
%TO.C,JPVCCB1*%
X86601532Y-18161445D02*
X85201532Y-18161445D01*
X84501532Y-18861445D02*
X84501532Y-19461445D01*
X85201532Y-20161445D02*
X86601532Y-20161445D01*
X87301532Y-19461445D02*
X87301532Y-18861445D01*
X87301532Y-18861445D02*
G75*
G03*
X86601532Y-18161445I-700000J0D01*
G01*
X86601532Y-20161445D02*
G75*
G03*
X87301532Y-19461445I0J700000D01*
G01*
X84501532Y-19461445D02*
G75*
G03*
X85201532Y-20161445I700000J0D01*
G01*
X85201532Y-18161445D02*
G75*
G03*
X84501532Y-18861445I0J-700000D01*
G01*
%TO.C,JPSDAB1*%
X94076532Y-22701453D02*
X95476532Y-22701453D01*
X96176532Y-22001453D02*
X96176532Y-21401453D01*
X95476532Y-20701453D02*
X94076532Y-20701453D01*
X93376532Y-21401453D02*
X93376532Y-22001453D01*
X93376532Y-22001453D02*
G75*
G03*
X94076532Y-22701453I700000J0D01*
G01*
X94076532Y-20701453D02*
G75*
G03*
X93376532Y-21401453I0J-700000D01*
G01*
X96176532Y-21401453D02*
G75*
G03*
X95476532Y-20701453I-700000J0D01*
G01*
X95476532Y-22701453D02*
G75*
G03*
X96176532Y-22001453I0J700000D01*
G01*
%TO.C,JPSCLB1*%
X94076532Y-25241449D02*
X95476532Y-25241449D01*
X96176532Y-24541449D02*
X96176532Y-23941449D01*
X95476532Y-23241449D02*
X94076532Y-23241449D01*
X93376532Y-23941449D02*
X93376532Y-24541449D01*
X93376532Y-24541449D02*
G75*
G03*
X94076532Y-25241449I700000J0D01*
G01*
X94076532Y-23241449D02*
G75*
G03*
X93376532Y-23941449I0J-700000D01*
G01*
X96176532Y-23941449D02*
G75*
G03*
X95476532Y-23241449I-700000J0D01*
G01*
X95476532Y-25241449D02*
G75*
G03*
X96176532Y-24541449I0J700000D01*
G01*
%TO.C,JPR3B1*%
X94076532Y-40481446D02*
X95476532Y-40481446D01*
X96176532Y-39781446D02*
X96176532Y-39181446D01*
X95476532Y-38481446D02*
X94076532Y-38481446D01*
X93376532Y-39181446D02*
X93376532Y-39781446D01*
X93376532Y-39781446D02*
G75*
G03*
X94076532Y-40481446I700000J0D01*
G01*
X94076532Y-38481446D02*
G75*
G03*
X93376532Y-39181446I0J-700000D01*
G01*
X96176532Y-39181446D02*
G75*
G03*
X95476532Y-38481446I-700000J0D01*
G01*
X95476532Y-40481446D02*
G75*
G03*
X96176532Y-39781446I0J700000D01*
G01*
%TO.C,JPR2B1*%
X94076532Y-37941449D02*
X95476532Y-37941449D01*
X96176532Y-37241449D02*
X96176532Y-36641449D01*
X95476532Y-35941449D02*
X94076532Y-35941449D01*
X93376532Y-36641449D02*
X93376532Y-37241449D01*
X93376532Y-37241449D02*
G75*
G03*
X94076532Y-37941449I700000J0D01*
G01*
X94076532Y-35941449D02*
G75*
G03*
X93376532Y-36641449I0J-700000D01*
G01*
X96176532Y-36641449D02*
G75*
G03*
X95476532Y-35941449I-700000J0D01*
G01*
X95476532Y-37941449D02*
G75*
G03*
X96176532Y-37241449I0J700000D01*
G01*
%TO.C,JPR1B1*%
X94076532Y-35401446D02*
X95476532Y-35401446D01*
X96176532Y-34701446D02*
X96176532Y-34101446D01*
X95476532Y-33401446D02*
X94076532Y-33401446D01*
X93376532Y-34101446D02*
X93376532Y-34701446D01*
X93376532Y-34701446D02*
G75*
G03*
X94076532Y-35401446I700000J0D01*
G01*
X94076532Y-33401446D02*
G75*
G03*
X93376532Y-34101446I0J-700000D01*
G01*
X96176532Y-34101446D02*
G75*
G03*
X95476532Y-33401446I-700000J0D01*
G01*
X95476532Y-35401446D02*
G75*
G03*
X96176532Y-34701446I0J700000D01*
G01*
%TO.C,JPR0B1*%
X94076533Y-32861450D02*
X95476533Y-32861450D01*
X96176533Y-32161450D02*
X96176533Y-31561450D01*
X95476533Y-30861450D02*
X94076533Y-30861450D01*
X93376533Y-31561450D02*
X93376533Y-32161450D01*
X93376533Y-32161450D02*
G75*
G03*
X94076533Y-32861450I700000J0D01*
G01*
X94076533Y-30861450D02*
G75*
G03*
X93376533Y-31561450I0J-700000D01*
G01*
X96176533Y-31561450D02*
G75*
G03*
X95476533Y-30861450I-700000J0D01*
G01*
X95476533Y-32861450D02*
G75*
G03*
X96176533Y-32161450I0J700000D01*
G01*
%TO.C,JPGNDB1*%
X86616534Y-13081451D02*
X85216534Y-13081451D01*
X84516534Y-13781451D02*
X84516534Y-14381451D01*
X85216534Y-15081451D02*
X86616534Y-15081451D01*
X87316534Y-14381451D02*
X87316534Y-13781451D01*
X87316534Y-13781451D02*
G75*
G03*
X86616534Y-13081451I-700000J0D01*
G01*
X86616534Y-15081451D02*
G75*
G03*
X87316534Y-14381451I0J700000D01*
G01*
X84516534Y-14381451D02*
G75*
G03*
X85216534Y-15081451I700000J0D01*
G01*
X85216534Y-13081451D02*
G75*
G03*
X84516534Y-13781451I0J-700000D01*
G01*
%TO.C,JPEBB2*%
X94076534Y-30321450D02*
X95476534Y-30321450D01*
X96176534Y-29621450D02*
X96176534Y-29021450D01*
X95476534Y-28321450D02*
X94076534Y-28321450D01*
X93376534Y-29021450D02*
X93376534Y-29621450D01*
X93376534Y-29621450D02*
G75*
G03*
X94076534Y-30321450I700000J0D01*
G01*
X94076534Y-28321450D02*
G75*
G03*
X93376534Y-29021450I0J-700000D01*
G01*
X96176534Y-29021450D02*
G75*
G03*
X95476534Y-28321450I-700000J0D01*
G01*
X95476534Y-30321450D02*
G75*
G03*
X96176534Y-29621450I0J700000D01*
G01*
%TO.C,JPEBB1*%
X86586532Y-10541452D02*
X85186532Y-10541452D01*
X84486532Y-11241452D02*
X84486532Y-11841452D01*
X85186532Y-12541452D02*
X86586532Y-12541452D01*
X87286532Y-11841452D02*
X87286532Y-11241452D01*
X87286532Y-11241452D02*
G75*
G03*
X86586532Y-10541452I-700000J0D01*
G01*
X86586532Y-12541452D02*
G75*
G03*
X87286532Y-11841452I0J700000D01*
G01*
X84486532Y-11841452D02*
G75*
G03*
X85186532Y-12541452I700000J0D01*
G01*
X85186532Y-10541452D02*
G75*
G03*
X84486532Y-11241452I0J-700000D01*
G01*
%TO.C,JPEAB1*%
X94091533Y-27781449D02*
X95491533Y-27781449D01*
X96191533Y-27081449D02*
X96191533Y-26481449D01*
X95491533Y-25781449D02*
X94091533Y-25781449D01*
X93391533Y-26481449D02*
X93391533Y-27081449D01*
X93391533Y-27081449D02*
G75*
G03*
X94091533Y-27781449I700000J0D01*
G01*
X94091533Y-25781449D02*
G75*
G03*
X93391533Y-26481449I0J-700000D01*
G01*
X96191533Y-26481449D02*
G75*
G03*
X95491533Y-25781449I-700000J0D01*
G01*
X95491533Y-27781449D02*
G75*
G03*
X96191533Y-27081449I0J700000D01*
G01*
%TO.C,JPC5B1*%
X86601531Y-38481448D02*
X85201531Y-38481448D01*
X84501531Y-39181448D02*
X84501531Y-39781448D01*
X85201531Y-40481448D02*
X86601531Y-40481448D01*
X87301531Y-39781448D02*
X87301531Y-39181448D01*
X87301531Y-39181448D02*
G75*
G03*
X86601531Y-38481448I-700000J0D01*
G01*
X86601531Y-40481448D02*
G75*
G03*
X87301531Y-39781448I0J700000D01*
G01*
X84501531Y-39781448D02*
G75*
G03*
X85201531Y-40481448I700000J0D01*
G01*
X85201531Y-38481448D02*
G75*
G03*
X84501531Y-39181448I0J-700000D01*
G01*
%TO.C,JPC4B1*%
X86601534Y-35941449D02*
X85201534Y-35941449D01*
X84501534Y-36641449D02*
X84501534Y-37241449D01*
X85201534Y-37941449D02*
X86601534Y-37941449D01*
X87301534Y-37241449D02*
X87301534Y-36641449D01*
X87301534Y-36641449D02*
G75*
G03*
X86601534Y-35941449I-700000J0D01*
G01*
X86601534Y-37941449D02*
G75*
G03*
X87301534Y-37241449I0J700000D01*
G01*
X84501534Y-37241449D02*
G75*
G03*
X85201534Y-37941449I700000J0D01*
G01*
X85201534Y-35941449D02*
G75*
G03*
X84501534Y-36641449I0J-700000D01*
G01*
%TO.C,JPC3B1*%
X86601531Y-33401448D02*
X85201531Y-33401448D01*
X84501531Y-34101448D02*
X84501531Y-34701448D01*
X85201531Y-35401448D02*
X86601531Y-35401448D01*
X87301531Y-34701448D02*
X87301531Y-34101448D01*
X87301531Y-34101448D02*
G75*
G03*
X86601531Y-33401448I-700000J0D01*
G01*
X86601531Y-35401448D02*
G75*
G03*
X87301531Y-34701448I0J700000D01*
G01*
X84501531Y-34701448D02*
G75*
G03*
X85201531Y-35401448I700000J0D01*
G01*
X85201531Y-33401448D02*
G75*
G03*
X84501531Y-34101448I0J-700000D01*
G01*
%TO.C,JPC2B1*%
X86601532Y-30861448D02*
X85201532Y-30861448D01*
X84501532Y-31561448D02*
X84501532Y-32161448D01*
X85201532Y-32861448D02*
X86601532Y-32861448D01*
X87301532Y-32161448D02*
X87301532Y-31561448D01*
X87301532Y-31561448D02*
G75*
G03*
X86601532Y-30861448I-700000J0D01*
G01*
X86601532Y-32861448D02*
G75*
G03*
X87301532Y-32161448I0J700000D01*
G01*
X84501532Y-32161448D02*
G75*
G03*
X85201532Y-32861448I700000J0D01*
G01*
X85201532Y-30861448D02*
G75*
G03*
X84501532Y-31561448I0J-700000D01*
G01*
%TO.C,JPC1B1*%
X86586534Y-28321450D02*
X85186534Y-28321450D01*
X84486534Y-29021450D02*
X84486534Y-29621450D01*
X85186534Y-30321450D02*
X86586534Y-30321450D01*
X87286534Y-29621450D02*
X87286534Y-29021450D01*
X87286534Y-29021450D02*
G75*
G03*
X86586534Y-28321450I-700000J0D01*
G01*
X86586534Y-30321450D02*
G75*
G03*
X87286534Y-29621450I0J700000D01*
G01*
X84486534Y-29621450D02*
G75*
G03*
X85186534Y-30321450I700000J0D01*
G01*
X85186534Y-28321450D02*
G75*
G03*
X84486534Y-29021450I0J-700000D01*
G01*
%TO.C,JPC0B1*%
X86586536Y-25781451D02*
X85186536Y-25781451D01*
X84486536Y-26481451D02*
X84486536Y-27081451D01*
X85186536Y-27781451D02*
X86586536Y-27781451D01*
X87286536Y-27081451D02*
X87286536Y-26481451D01*
X87286536Y-26481451D02*
G75*
G03*
X86586536Y-25781451I-700000J0D01*
G01*
X86586536Y-27781451D02*
G75*
G03*
X87286536Y-27081451I0J700000D01*
G01*
X84486536Y-27081451D02*
G75*
G03*
X85186536Y-27781451I700000J0D01*
G01*
X85186536Y-25781451D02*
G75*
G03*
X84486536Y-26481451I0J-700000D01*
G01*
D11*
%TO.C,D35*%
X99303124Y-72442629D02*
X100332547Y-72459616D01*
X100332547Y-72459616D02*
X99832547Y-73325642D01*
X99832547Y-73325642D02*
X99303124Y-72442629D01*
X99466521Y-71959616D02*
X98966521Y-72825642D01*
X102362803Y-73343110D02*
X97686265Y-70643110D01*
X97686265Y-70643110D02*
X96936265Y-71942148D01*
X96936265Y-71942148D02*
X101612803Y-74642148D01*
X101612803Y-74642148D02*
X102362803Y-73343110D01*
%TO.C,D34*%
X82849921Y-62943368D02*
X83879344Y-62960355D01*
X83879344Y-62960355D02*
X83379344Y-63826381D01*
X83379344Y-63826381D02*
X82849921Y-62943368D01*
X83013318Y-62460355D02*
X82513318Y-63326381D01*
X85909600Y-63843849D02*
X81233062Y-61143849D01*
X81233062Y-61143849D02*
X80483062Y-62442887D01*
X80483062Y-62442887D02*
X85159600Y-65142887D01*
X85159600Y-65142887D02*
X85909600Y-63843849D01*
%TO.C,D33*%
X57094452Y-57056256D02*
X56095710Y-57306281D01*
X56095710Y-57306281D02*
X56354529Y-56340356D01*
X56354529Y-56340356D02*
X57094452Y-57056256D01*
X57061635Y-57565100D02*
X57320454Y-56599175D01*
X53905968Y-56978361D02*
X59121967Y-58375984D01*
X59121967Y-58375984D02*
X59510196Y-56927095D01*
X59510196Y-56927095D02*
X54294197Y-55529472D01*
X54294197Y-55529472D02*
X53905968Y-56978361D01*
%TO.C,D32*%
X29571534Y-50956449D02*
X28671534Y-51456449D01*
X28671534Y-51456449D02*
X28671534Y-50456449D01*
X28671534Y-50456449D02*
X29571534Y-50956449D01*
X29671534Y-51456449D02*
X29671534Y-50456449D01*
X26471534Y-51706449D02*
X31871534Y-51706449D01*
X31871534Y-51706449D02*
X31871534Y-50206449D01*
X31871534Y-50206449D02*
X26471534Y-50206449D01*
X26471534Y-50206449D02*
X26471534Y-51706449D01*
%TO.C,D25*%
X67671534Y-36351450D02*
X66771534Y-36851450D01*
X66771534Y-36851450D02*
X66771534Y-35851450D01*
X66771534Y-35851450D02*
X67671534Y-36351450D01*
X67771534Y-36851450D02*
X67771534Y-35851450D01*
X64571534Y-37101450D02*
X69971534Y-37101450D01*
X69971534Y-37101450D02*
X69971534Y-35601450D01*
X69971534Y-35601450D02*
X64571534Y-35601450D01*
X64571534Y-35601450D02*
X64571534Y-37101450D01*
%TO.C,D24*%
X48621532Y-34446448D02*
X47721532Y-34946448D01*
X47721532Y-34946448D02*
X47721532Y-33946448D01*
X47721532Y-33946448D02*
X48621532Y-34446448D01*
X48721532Y-34946448D02*
X48721532Y-33946448D01*
X45521532Y-35196448D02*
X50921532Y-35196448D01*
X50921532Y-35196448D02*
X50921532Y-33696448D01*
X50921532Y-33696448D02*
X45521532Y-33696448D01*
X45521532Y-33696448D02*
X45521532Y-35196448D01*
%TO.C,D23*%
X29571535Y-31906451D02*
X28671535Y-32406451D01*
X28671535Y-32406451D02*
X28671535Y-31406451D01*
X28671535Y-31406451D02*
X29571535Y-31906451D01*
X29671535Y-32406451D02*
X29671535Y-31406451D01*
X26471535Y-32656451D02*
X31871535Y-32656451D01*
X31871535Y-32656451D02*
X31871535Y-31156451D01*
X31871535Y-31156451D02*
X26471535Y-31156451D01*
X26471535Y-31156451D02*
X26471535Y-32656451D01*
%TO.C,D22*%
X10521534Y-34446447D02*
X9621534Y-34946447D01*
X9621534Y-34946447D02*
X9621534Y-33946447D01*
X9621534Y-33946447D02*
X10521534Y-34446447D01*
X10621534Y-34946447D02*
X10621534Y-33946447D01*
X7421534Y-35196447D02*
X12821534Y-35196447D01*
X12821534Y-35196447D02*
X12821534Y-33696447D01*
X12821534Y-33696447D02*
X7421534Y-33696447D01*
X7421534Y-33696447D02*
X7421534Y-35196447D01*
%TO.C,D21*%
X-8528469Y-38891448D02*
X-9428469Y-39391448D01*
X-9428469Y-39391448D02*
X-9428469Y-38391448D01*
X-9428469Y-38391448D02*
X-8528469Y-38891448D01*
X-8428469Y-39391448D02*
X-8428469Y-38391448D01*
X-11628469Y-39641448D02*
X-6228469Y-39641448D01*
X-6228469Y-39641448D02*
X-6228469Y-38141448D01*
X-6228469Y-38141448D02*
X-11628469Y-38141448D01*
X-11628469Y-38141448D02*
X-11628469Y-39641448D01*
%TO.C,D20*%
X-27578468Y-38891447D02*
X-28478468Y-39391447D01*
X-28478468Y-39391447D02*
X-28478468Y-38391447D01*
X-28478468Y-38391447D02*
X-27578468Y-38891447D01*
X-27478468Y-39391447D02*
X-27478468Y-38391447D01*
X-30678468Y-39641447D02*
X-25278468Y-39641447D01*
X-25278468Y-39641447D02*
X-25278468Y-38141447D01*
X-25278468Y-38141447D02*
X-30678468Y-38141447D01*
X-30678468Y-38141447D02*
X-30678468Y-39641447D01*
%TO.C,D15*%
X67671534Y-33811446D02*
X66771534Y-34311446D01*
X66771534Y-34311446D02*
X66771534Y-33311446D01*
X66771534Y-33311446D02*
X67671534Y-33811446D01*
X67771534Y-34311446D02*
X67771534Y-33311446D01*
X64571534Y-34561446D02*
X69971534Y-34561446D01*
X69971534Y-34561446D02*
X69971534Y-33061446D01*
X69971534Y-33061446D02*
X64571534Y-33061446D01*
X64571534Y-33061446D02*
X64571534Y-34561446D01*
%TO.C,D14*%
X48621534Y-31906448D02*
X47721534Y-32406448D01*
X47721534Y-32406448D02*
X47721534Y-31406448D01*
X47721534Y-31406448D02*
X48621534Y-31906448D01*
X48721534Y-32406448D02*
X48721534Y-31406448D01*
X45521534Y-32656448D02*
X50921534Y-32656448D01*
X50921534Y-32656448D02*
X50921534Y-31156448D01*
X50921534Y-31156448D02*
X45521534Y-31156448D01*
X45521534Y-31156448D02*
X45521534Y-32656448D01*
%TO.C,D13*%
X29571535Y-29366447D02*
X28671535Y-29866447D01*
X28671535Y-29866447D02*
X28671535Y-28866447D01*
X28671535Y-28866447D02*
X29571535Y-29366447D01*
X29671535Y-29866447D02*
X29671535Y-28866447D01*
X26471535Y-30116447D02*
X31871535Y-30116447D01*
X31871535Y-30116447D02*
X31871535Y-28616447D01*
X31871535Y-28616447D02*
X26471535Y-28616447D01*
X26471535Y-28616447D02*
X26471535Y-30116447D01*
%TO.C,D12*%
X10521534Y-31906449D02*
X9621534Y-32406449D01*
X9621534Y-32406449D02*
X9621534Y-31406449D01*
X9621534Y-31406449D02*
X10521534Y-31906449D01*
X10621534Y-32406449D02*
X10621534Y-31406449D01*
X7421534Y-32656449D02*
X12821534Y-32656449D01*
X12821534Y-32656449D02*
X12821534Y-31156449D01*
X12821534Y-31156449D02*
X7421534Y-31156449D01*
X7421534Y-31156449D02*
X7421534Y-32656449D01*
%TO.C,D11*%
X-8528469Y-36351444D02*
X-9428469Y-36851444D01*
X-9428469Y-36851444D02*
X-9428469Y-35851444D01*
X-9428469Y-35851444D02*
X-8528469Y-36351444D01*
X-8428469Y-36851444D02*
X-8428469Y-35851444D01*
X-11628469Y-37101444D02*
X-6228469Y-37101444D01*
X-6228469Y-37101444D02*
X-6228469Y-35601444D01*
X-6228469Y-35601444D02*
X-11628469Y-35601444D01*
X-11628469Y-35601444D02*
X-11628469Y-37101444D01*
%TO.C,D10*%
X-27578468Y-36351448D02*
X-28478468Y-36851448D01*
X-28478468Y-36851448D02*
X-28478468Y-35851448D01*
X-28478468Y-35851448D02*
X-27578468Y-36351448D01*
X-27478468Y-36851448D02*
X-27478468Y-35851448D01*
X-30678468Y-37101448D02*
X-25278468Y-37101448D01*
X-25278468Y-37101448D02*
X-25278468Y-35601448D01*
X-25278468Y-35601448D02*
X-30678468Y-35601448D01*
X-30678468Y-35601448D02*
X-30678468Y-37101448D01*
%TO.C,D5*%
X67671533Y-14761449D02*
X66771533Y-15261449D01*
X66771533Y-15261449D02*
X66771533Y-14261449D01*
X66771533Y-14261449D02*
X67671533Y-14761449D01*
X67771533Y-15261449D02*
X67771533Y-14261449D01*
X64571533Y-15511449D02*
X69971533Y-15511449D01*
X69971533Y-15511449D02*
X69971533Y-14011449D01*
X69971533Y-14011449D02*
X64571533Y-14011449D01*
X64571533Y-14011449D02*
X64571533Y-15511449D01*
%TO.C,D4*%
X48621533Y-12856447D02*
X47721533Y-13356447D01*
X47721533Y-13356447D02*
X47721533Y-12356447D01*
X47721533Y-12356447D02*
X48621533Y-12856447D01*
X48721533Y-13356447D02*
X48721533Y-12356447D01*
X45521533Y-13606447D02*
X50921533Y-13606447D01*
X50921533Y-13606447D02*
X50921533Y-12106447D01*
X50921533Y-12106447D02*
X45521533Y-12106447D01*
X45521533Y-12106447D02*
X45521533Y-13606447D01*
%TO.C,D3*%
X29571531Y-10316447D02*
X28671531Y-10816447D01*
X28671531Y-10816447D02*
X28671531Y-9816447D01*
X28671531Y-9816447D02*
X29571531Y-10316447D01*
X29671531Y-10816447D02*
X29671531Y-9816447D01*
X26471531Y-11066447D02*
X31871531Y-11066447D01*
X31871531Y-11066447D02*
X31871531Y-9566447D01*
X31871531Y-9566447D02*
X26471531Y-9566447D01*
X26471531Y-9566447D02*
X26471531Y-11066447D01*
%TO.C,D2*%
X10521533Y-12856448D02*
X9621533Y-13356448D01*
X9621533Y-13356448D02*
X9621533Y-12356448D01*
X9621533Y-12356448D02*
X10521533Y-12856448D01*
X10621533Y-13356448D02*
X10621533Y-12356448D01*
X7421533Y-13606448D02*
X12821533Y-13606448D01*
X12821533Y-13606448D02*
X12821533Y-12106448D01*
X12821533Y-12106448D02*
X7421533Y-12106448D01*
X7421533Y-12106448D02*
X7421533Y-13606448D01*
%TO.C,D1*%
X-8528468Y-17301447D02*
X-9428468Y-17801447D01*
X-9428468Y-17801447D02*
X-9428468Y-16801447D01*
X-9428468Y-16801447D02*
X-8528468Y-17301447D01*
X-8428468Y-17801447D02*
X-8428468Y-16801447D01*
X-11628468Y-18051447D02*
X-6228468Y-18051447D01*
X-6228468Y-18051447D02*
X-6228468Y-16551447D01*
X-6228468Y-16551447D02*
X-11628468Y-16551447D01*
X-11628468Y-16551447D02*
X-11628468Y-18051447D01*
%TO.C,D0*%
X-27578465Y-17301451D02*
X-28478465Y-17801451D01*
X-28478465Y-17801451D02*
X-28478465Y-16801451D01*
X-28478465Y-16801451D02*
X-27578465Y-17301451D01*
X-27478465Y-17801451D02*
X-27478465Y-16801451D01*
X-30678465Y-18051451D02*
X-25278465Y-18051451D01*
X-25278465Y-18051451D02*
X-25278465Y-16551451D01*
X-25278465Y-16551451D02*
X-30678465Y-16551451D01*
X-30678465Y-16551451D02*
X-30678465Y-18051451D01*
%TO.C,U0*%
X89355866Y-32223354D02*
X89813009Y-32223354D01*
X89584437Y-32223354D02*
X89584437Y-31423354D01*
X89660628Y-31537640D01*
X89736818Y-31613830D01*
X89813009Y-31651926D01*
X88593961Y-32223354D02*
X89051104Y-32223354D01*
X88822533Y-32223354D02*
X88822533Y-31423354D01*
X88898723Y-31537640D01*
X88974913Y-31613830D01*
X89051104Y-31651926D01*
X88327294Y-31423354D02*
X87832056Y-31423354D01*
X88098723Y-31728116D01*
X87984437Y-31728116D01*
X87908247Y-31766211D01*
X87870152Y-31804307D01*
X87832056Y-31880497D01*
X87832056Y-32070973D01*
X87870152Y-32147164D01*
X87908247Y-32185259D01*
X87984437Y-32223354D01*
X88213009Y-32223354D01*
X88289199Y-32185259D01*
X88327294Y-32147164D01*
X89622533Y-26343354D02*
X89546342Y-26343354D01*
X89470152Y-26381450D01*
X89432056Y-26419545D01*
X89393961Y-26495735D01*
X89355866Y-26648116D01*
X89355866Y-26838592D01*
X89393961Y-26990973D01*
X89432056Y-27067164D01*
X89470152Y-27105259D01*
X89546342Y-27143354D01*
X89622533Y-27143354D01*
X89698723Y-27105259D01*
X89736818Y-27067164D01*
X89774913Y-26990973D01*
X89813009Y-26838592D01*
X89813009Y-26648116D01*
X89774913Y-26495735D01*
X89736818Y-26419545D01*
X89698723Y-26381450D01*
X89622533Y-26343354D01*
X88860628Y-26343354D02*
X88784437Y-26343354D01*
X88708247Y-26381450D01*
X88670152Y-26419545D01*
X88632056Y-26495735D01*
X88593961Y-26648116D01*
X88593961Y-26838592D01*
X88632056Y-26990973D01*
X88670152Y-27067164D01*
X88708247Y-27105259D01*
X88784437Y-27143354D01*
X88860628Y-27143354D01*
X88936818Y-27105259D01*
X88974913Y-27067164D01*
X89013009Y-26990973D01*
X89051104Y-26838592D01*
X89051104Y-26648116D01*
X89013009Y-26495735D01*
X88974913Y-26419545D01*
X88936818Y-26381450D01*
X88860628Y-26343354D01*
X88289199Y-26419545D02*
X88251104Y-26381450D01*
X88174913Y-26343354D01*
X87984437Y-26343354D01*
X87908247Y-26381450D01*
X87870152Y-26419545D01*
X87832056Y-26495735D01*
X87832056Y-26571926D01*
X87870152Y-26686211D01*
X88327294Y-27143354D01*
X87832056Y-27143354D01*
X89355866Y-34763354D02*
X89813009Y-34763354D01*
X89584437Y-34763354D02*
X89584437Y-33963354D01*
X89660628Y-34077640D01*
X89736818Y-34153830D01*
X89813009Y-34191926D01*
X88593961Y-34763354D02*
X89051104Y-34763354D01*
X88822533Y-34763354D02*
X88822533Y-33963354D01*
X88898723Y-34077640D01*
X88974913Y-34153830D01*
X89051104Y-34191926D01*
X87832056Y-34763354D02*
X88289199Y-34763354D01*
X88060628Y-34763354D02*
X88060628Y-33963354D01*
X88136818Y-34077640D01*
X88213009Y-34153830D01*
X88289199Y-34191926D01*
X89622533Y-39043354D02*
X89546342Y-39043354D01*
X89470152Y-39081450D01*
X89432056Y-39119545D01*
X89393961Y-39195735D01*
X89355866Y-39348116D01*
X89355866Y-39538592D01*
X89393961Y-39690973D01*
X89432056Y-39767164D01*
X89470152Y-39805259D01*
X89546342Y-39843354D01*
X89622533Y-39843354D01*
X89698723Y-39805259D01*
X89736818Y-39767164D01*
X89774913Y-39690973D01*
X89813009Y-39538592D01*
X89813009Y-39348116D01*
X89774913Y-39195735D01*
X89736818Y-39119545D01*
X89698723Y-39081450D01*
X89622533Y-39043354D01*
X88860628Y-39043354D02*
X88784437Y-39043354D01*
X88708247Y-39081450D01*
X88670152Y-39119545D01*
X88632056Y-39195735D01*
X88593961Y-39348116D01*
X88593961Y-39538592D01*
X88632056Y-39690973D01*
X88670152Y-39767164D01*
X88708247Y-39805259D01*
X88784437Y-39843354D01*
X88860628Y-39843354D01*
X88936818Y-39805259D01*
X88974913Y-39767164D01*
X89013009Y-39690973D01*
X89051104Y-39538592D01*
X89051104Y-39348116D01*
X89013009Y-39195735D01*
X88974913Y-39119545D01*
X88936818Y-39081450D01*
X88860628Y-39043354D01*
X88213009Y-39843354D02*
X88060628Y-39843354D01*
X87984437Y-39805259D01*
X87946342Y-39767164D01*
X87870152Y-39652878D01*
X87832056Y-39500497D01*
X87832056Y-39195735D01*
X87870152Y-39119545D01*
X87908247Y-39081450D01*
X87984437Y-39043354D01*
X88136818Y-39043354D01*
X88213009Y-39081450D01*
X88251104Y-39119545D01*
X88289199Y-39195735D01*
X88289199Y-39386211D01*
X88251104Y-39462402D01*
X88213009Y-39500497D01*
X88136818Y-39538592D01*
X87984437Y-39538592D01*
X87908247Y-39500497D01*
X87870152Y-39462402D01*
X87832056Y-39386211D01*
X89622533Y-21263354D02*
X89546342Y-21263354D01*
X89470152Y-21301450D01*
X89432056Y-21339545D01*
X89393961Y-21415735D01*
X89355866Y-21568116D01*
X89355866Y-21758592D01*
X89393961Y-21910973D01*
X89432056Y-21987164D01*
X89470152Y-22025259D01*
X89546342Y-22063354D01*
X89622533Y-22063354D01*
X89698723Y-22025259D01*
X89736818Y-21987164D01*
X89774913Y-21910973D01*
X89813009Y-21758592D01*
X89813009Y-21568116D01*
X89774913Y-21415735D01*
X89736818Y-21339545D01*
X89698723Y-21301450D01*
X89622533Y-21263354D01*
X89089199Y-21263354D02*
X88593961Y-21263354D01*
X88860628Y-21568116D01*
X88746342Y-21568116D01*
X88670152Y-21606211D01*
X88632056Y-21644307D01*
X88593961Y-21720497D01*
X88593961Y-21910973D01*
X88632056Y-21987164D01*
X88670152Y-22025259D01*
X88746342Y-22063354D01*
X88974913Y-22063354D01*
X89051104Y-22025259D01*
X89089199Y-21987164D01*
X87832056Y-22063354D02*
X88289199Y-22063354D01*
X88060628Y-22063354D02*
X88060628Y-21263354D01*
X88136818Y-21377640D01*
X88213009Y-21453830D01*
X88289199Y-21491926D01*
X89622533Y-36503354D02*
X89546342Y-36503354D01*
X89470152Y-36541450D01*
X89432056Y-36579545D01*
X89393961Y-36655735D01*
X89355866Y-36808116D01*
X89355866Y-36998592D01*
X89393961Y-37150973D01*
X89432056Y-37227164D01*
X89470152Y-37265259D01*
X89546342Y-37303354D01*
X89622533Y-37303354D01*
X89698723Y-37265259D01*
X89736818Y-37227164D01*
X89774913Y-37150973D01*
X89813009Y-36998592D01*
X89813009Y-36808116D01*
X89774913Y-36655735D01*
X89736818Y-36579545D01*
X89698723Y-36541450D01*
X89622533Y-36503354D01*
X88593961Y-37303354D02*
X89051104Y-37303354D01*
X88822533Y-37303354D02*
X88822533Y-36503354D01*
X88898723Y-36617640D01*
X88974913Y-36693830D01*
X89051104Y-36731926D01*
X88098723Y-36503354D02*
X88022533Y-36503354D01*
X87946342Y-36541450D01*
X87908247Y-36579545D01*
X87870152Y-36655735D01*
X87832056Y-36808116D01*
X87832056Y-36998592D01*
X87870152Y-37150973D01*
X87908247Y-37227164D01*
X87946342Y-37265259D01*
X88022533Y-37303354D01*
X88098723Y-37303354D01*
X88174913Y-37265259D01*
X88213009Y-37227164D01*
X88251104Y-37150973D01*
X88289199Y-36998592D01*
X88289199Y-36808116D01*
X88251104Y-36655735D01*
X88213009Y-36579545D01*
X88174913Y-36541450D01*
X88098723Y-36503354D01*
X89622533Y-23803354D02*
X89546342Y-23803354D01*
X89470152Y-23841450D01*
X89432056Y-23879545D01*
X89393961Y-23955735D01*
X89355866Y-24108116D01*
X89355866Y-24298592D01*
X89393961Y-24450973D01*
X89432056Y-24527164D01*
X89470152Y-24565259D01*
X89546342Y-24603354D01*
X89622533Y-24603354D01*
X89698723Y-24565259D01*
X89736818Y-24527164D01*
X89774913Y-24450973D01*
X89813009Y-24298592D01*
X89813009Y-24108116D01*
X89774913Y-23955735D01*
X89736818Y-23879545D01*
X89698723Y-23841450D01*
X89622533Y-23803354D01*
X89051104Y-23879545D02*
X89013009Y-23841450D01*
X88936818Y-23803354D01*
X88746342Y-23803354D01*
X88670152Y-23841450D01*
X88632056Y-23879545D01*
X88593961Y-23955735D01*
X88593961Y-24031926D01*
X88632056Y-24146211D01*
X89089199Y-24603354D01*
X88593961Y-24603354D01*
X88213009Y-24603354D02*
X88060628Y-24603354D01*
X87984437Y-24565259D01*
X87946342Y-24527164D01*
X87870152Y-24412878D01*
X87832056Y-24260497D01*
X87832056Y-23955735D01*
X87870152Y-23879545D01*
X87908247Y-23841450D01*
X87984437Y-23803354D01*
X88136818Y-23803354D01*
X88213009Y-23841450D01*
X88251104Y-23879545D01*
X88289199Y-23955735D01*
X88289199Y-24146211D01*
X88251104Y-24222402D01*
X88213009Y-24260497D01*
X88136818Y-24298592D01*
X87984437Y-24298592D01*
X87908247Y-24260497D01*
X87870152Y-24222402D01*
X87832056Y-24146211D01*
X89889199Y-18723354D02*
X89622533Y-19523354D01*
X89355866Y-18723354D01*
X88632056Y-19447164D02*
X88670152Y-19485259D01*
X88784437Y-19523354D01*
X88860628Y-19523354D01*
X88974913Y-19485259D01*
X89051104Y-19409069D01*
X89089199Y-19332878D01*
X89127294Y-19180497D01*
X89127294Y-19066211D01*
X89089199Y-18913830D01*
X89051104Y-18837640D01*
X88974913Y-18761450D01*
X88860628Y-18723354D01*
X88784437Y-18723354D01*
X88670152Y-18761450D01*
X88632056Y-18799545D01*
X87832056Y-19447164D02*
X87870152Y-19485259D01*
X87984437Y-19523354D01*
X88060628Y-19523354D01*
X88174913Y-19485259D01*
X88251104Y-19409069D01*
X88289199Y-19332878D01*
X88327294Y-19180497D01*
X88327294Y-19066211D01*
X88289199Y-18913830D01*
X88251104Y-18837640D01*
X88174913Y-18761450D01*
X88060628Y-18723354D01*
X87984437Y-18723354D01*
X87870152Y-18761450D01*
X87832056Y-18799545D01*
X89260628Y-16983354D02*
X89527294Y-16602402D01*
X89717771Y-16983354D02*
X89717771Y-16183354D01*
X89413009Y-16183354D01*
X89336818Y-16221450D01*
X89298723Y-16259545D01*
X89260628Y-16335735D01*
X89260628Y-16450021D01*
X89298723Y-16526211D01*
X89336818Y-16564307D01*
X89413009Y-16602402D01*
X89717771Y-16602402D01*
X88955866Y-16945259D02*
X88841580Y-16983354D01*
X88651104Y-16983354D01*
X88574913Y-16945259D01*
X88536818Y-16907164D01*
X88498723Y-16830973D01*
X88498723Y-16754783D01*
X88536818Y-16678592D01*
X88574913Y-16640497D01*
X88651104Y-16602402D01*
X88803485Y-16564307D01*
X88879675Y-16526211D01*
X88917771Y-16488116D01*
X88955866Y-16411926D01*
X88955866Y-16335735D01*
X88917771Y-16259545D01*
X88879675Y-16221450D01*
X88803485Y-16183354D01*
X88613009Y-16183354D01*
X88498723Y-16221450D01*
X88270152Y-16183354D02*
X87813009Y-16183354D01*
X88041580Y-16983354D02*
X88041580Y-16183354D01*
X89432056Y-13681450D02*
X89508247Y-13643354D01*
X89622533Y-13643354D01*
X89736818Y-13681450D01*
X89813009Y-13757640D01*
X89851104Y-13833830D01*
X89889199Y-13986211D01*
X89889199Y-14100497D01*
X89851104Y-14252878D01*
X89813009Y-14329069D01*
X89736818Y-14405259D01*
X89622533Y-14443354D01*
X89546342Y-14443354D01*
X89432056Y-14405259D01*
X89393961Y-14367164D01*
X89393961Y-14100497D01*
X89546342Y-14100497D01*
X89051104Y-14443354D02*
X89051104Y-13643354D01*
X88593961Y-14443354D01*
X88593961Y-13643354D01*
X88213009Y-14443354D02*
X88213009Y-13643354D01*
X88022533Y-13643354D01*
X87908247Y-13681450D01*
X87832056Y-13757640D01*
X87793961Y-13833830D01*
X87755866Y-13986211D01*
X87755866Y-14100497D01*
X87793961Y-14252878D01*
X87832056Y-14329069D01*
X87908247Y-14405259D01*
X88022533Y-14443354D01*
X88213009Y-14443354D01*
X89374913Y-11903354D02*
X89641580Y-11522402D01*
X89832056Y-11903354D02*
X89832056Y-11103354D01*
X89527294Y-11103354D01*
X89451104Y-11141450D01*
X89413009Y-11179545D01*
X89374913Y-11255735D01*
X89374913Y-11370021D01*
X89413009Y-11446211D01*
X89451104Y-11484307D01*
X89527294Y-11522402D01*
X89832056Y-11522402D01*
X89070152Y-11674783D02*
X88689199Y-11674783D01*
X89146342Y-11903354D02*
X88879675Y-11103354D01*
X88613009Y-11903354D01*
X88422533Y-11103354D02*
X88232056Y-11903354D01*
X88079675Y-11331926D01*
X87927294Y-11903354D01*
X87736818Y-11103354D01*
X89355866Y-29683354D02*
X89813009Y-29683354D01*
X89584437Y-29683354D02*
X89584437Y-28883354D01*
X89660628Y-28997640D01*
X89736818Y-29073830D01*
X89813009Y-29111926D01*
X88593961Y-29683354D02*
X89051104Y-29683354D01*
X88822533Y-29683354D02*
X88822533Y-28883354D01*
X88898723Y-28997640D01*
X88974913Y-29073830D01*
X89051104Y-29111926D01*
X87870152Y-28883354D02*
X88251104Y-28883354D01*
X88289199Y-29264307D01*
X88251104Y-29226211D01*
X88174913Y-29188116D01*
X87984437Y-29188116D01*
X87908247Y-29226211D01*
X87870152Y-29264307D01*
X87832056Y-29340497D01*
X87832056Y-29530973D01*
X87870152Y-29607164D01*
X87908247Y-29645259D01*
X87984437Y-29683354D01*
X88174913Y-29683354D01*
X88251104Y-29645259D01*
X88289199Y-29607164D01*
X92670533Y-28883354D02*
X92594342Y-28883354D01*
X92518152Y-28921450D01*
X92480056Y-28959545D01*
X92441961Y-29035735D01*
X92403866Y-29188116D01*
X92403866Y-29378592D01*
X92441961Y-29530973D01*
X92480056Y-29607164D01*
X92518152Y-29645259D01*
X92594342Y-29683354D01*
X92670533Y-29683354D01*
X92746723Y-29645259D01*
X92784818Y-29607164D01*
X92822913Y-29530973D01*
X92861009Y-29378592D01*
X92861009Y-29188116D01*
X92822913Y-29035735D01*
X92784818Y-28959545D01*
X92746723Y-28921450D01*
X92670533Y-28883354D01*
X92099104Y-28959545D02*
X92061009Y-28921450D01*
X91984818Y-28883354D01*
X91794342Y-28883354D01*
X91718152Y-28921450D01*
X91680056Y-28959545D01*
X91641961Y-29035735D01*
X91641961Y-29111926D01*
X91680056Y-29226211D01*
X92137199Y-29683354D01*
X91641961Y-29683354D01*
X90956247Y-29150021D02*
X90956247Y-29683354D01*
X91146723Y-28845259D02*
X91337199Y-29416688D01*
X90841961Y-29416688D01*
X92670533Y-11103354D02*
X92594342Y-11103354D01*
X92518152Y-11141450D01*
X92480056Y-11179545D01*
X92441961Y-11255735D01*
X92403866Y-11408116D01*
X92403866Y-11598592D01*
X92441961Y-11750973D01*
X92480056Y-11827164D01*
X92518152Y-11865259D01*
X92594342Y-11903354D01*
X92670533Y-11903354D01*
X92746723Y-11865259D01*
X92784818Y-11827164D01*
X92822913Y-11750973D01*
X92861009Y-11598592D01*
X92861009Y-11408116D01*
X92822913Y-11255735D01*
X92784818Y-11179545D01*
X92746723Y-11141450D01*
X92670533Y-11103354D01*
X91908628Y-11103354D02*
X91832437Y-11103354D01*
X91756247Y-11141450D01*
X91718152Y-11179545D01*
X91680056Y-11255735D01*
X91641961Y-11408116D01*
X91641961Y-11598592D01*
X91680056Y-11750973D01*
X91718152Y-11827164D01*
X91756247Y-11865259D01*
X91832437Y-11903354D01*
X91908628Y-11903354D01*
X91984818Y-11865259D01*
X92022913Y-11827164D01*
X92061009Y-11750973D01*
X92099104Y-11598592D01*
X92099104Y-11408116D01*
X92061009Y-11255735D01*
X92022913Y-11179545D01*
X91984818Y-11141450D01*
X91908628Y-11103354D01*
X90956247Y-11103354D02*
X91108628Y-11103354D01*
X91184818Y-11141450D01*
X91222913Y-11179545D01*
X91299104Y-11293830D01*
X91337199Y-11446211D01*
X91337199Y-11750973D01*
X91299104Y-11827164D01*
X91261009Y-11865259D01*
X91184818Y-11903354D01*
X91032437Y-11903354D01*
X90956247Y-11865259D01*
X90918152Y-11827164D01*
X90880056Y-11750973D01*
X90880056Y-11560497D01*
X90918152Y-11484307D01*
X90956247Y-11446211D01*
X91032437Y-11408116D01*
X91184818Y-11408116D01*
X91261009Y-11446211D01*
X91299104Y-11484307D01*
X91337199Y-11560497D01*
X92670533Y-13643354D02*
X92594342Y-13643354D01*
X92518152Y-13681450D01*
X92480056Y-13719545D01*
X92441961Y-13795735D01*
X92403866Y-13948116D01*
X92403866Y-14138592D01*
X92441961Y-14290973D01*
X92480056Y-14367164D01*
X92518152Y-14405259D01*
X92594342Y-14443354D01*
X92670533Y-14443354D01*
X92746723Y-14405259D01*
X92784818Y-14367164D01*
X92822913Y-14290973D01*
X92861009Y-14138592D01*
X92861009Y-13948116D01*
X92822913Y-13795735D01*
X92784818Y-13719545D01*
X92746723Y-13681450D01*
X92670533Y-13643354D01*
X91908628Y-13643354D02*
X91832437Y-13643354D01*
X91756247Y-13681450D01*
X91718152Y-13719545D01*
X91680056Y-13795735D01*
X91641961Y-13948116D01*
X91641961Y-14138592D01*
X91680056Y-14290973D01*
X91718152Y-14367164D01*
X91756247Y-14405259D01*
X91832437Y-14443354D01*
X91908628Y-14443354D01*
X91984818Y-14405259D01*
X92022913Y-14367164D01*
X92061009Y-14290973D01*
X92099104Y-14138592D01*
X92099104Y-13948116D01*
X92061009Y-13795735D01*
X92022913Y-13719545D01*
X91984818Y-13681450D01*
X91908628Y-13643354D01*
X91184818Y-13986211D02*
X91261009Y-13948116D01*
X91299104Y-13910021D01*
X91337199Y-13833830D01*
X91337199Y-13795735D01*
X91299104Y-13719545D01*
X91261009Y-13681450D01*
X91184818Y-13643354D01*
X91032437Y-13643354D01*
X90956247Y-13681450D01*
X90918152Y-13719545D01*
X90880056Y-13795735D01*
X90880056Y-13833830D01*
X90918152Y-13910021D01*
X90956247Y-13948116D01*
X91032437Y-13986211D01*
X91184818Y-13986211D01*
X91261009Y-14024307D01*
X91299104Y-14062402D01*
X91337199Y-14138592D01*
X91337199Y-14290973D01*
X91299104Y-14367164D01*
X91261009Y-14405259D01*
X91184818Y-14443354D01*
X91032437Y-14443354D01*
X90956247Y-14405259D01*
X90918152Y-14367164D01*
X90880056Y-14290973D01*
X90880056Y-14138592D01*
X90918152Y-14062402D01*
X90956247Y-14024307D01*
X91032437Y-13986211D01*
X92480056Y-16221450D02*
X92556247Y-16183354D01*
X92670533Y-16183354D01*
X92784818Y-16221450D01*
X92861009Y-16297640D01*
X92899104Y-16373830D01*
X92937199Y-16526211D01*
X92937199Y-16640497D01*
X92899104Y-16792878D01*
X92861009Y-16869069D01*
X92784818Y-16945259D01*
X92670533Y-16983354D01*
X92594342Y-16983354D01*
X92480056Y-16945259D01*
X92441961Y-16907164D01*
X92441961Y-16640497D01*
X92594342Y-16640497D01*
X92099104Y-16983354D02*
X92099104Y-16183354D01*
X91641961Y-16983354D01*
X91641961Y-16183354D01*
X91261009Y-16983354D02*
X91261009Y-16183354D01*
X91070533Y-16183354D01*
X90956247Y-16221450D01*
X90880056Y-16297640D01*
X90841961Y-16373830D01*
X90803866Y-16526211D01*
X90803866Y-16640497D01*
X90841961Y-16792878D01*
X90880056Y-16869069D01*
X90956247Y-16945259D01*
X91070533Y-16983354D01*
X91261009Y-16983354D01*
X92480056Y-18761450D02*
X92556247Y-18723354D01*
X92670533Y-18723354D01*
X92784818Y-18761450D01*
X92861009Y-18837640D01*
X92899104Y-18913830D01*
X92937199Y-19066211D01*
X92937199Y-19180497D01*
X92899104Y-19332878D01*
X92861009Y-19409069D01*
X92784818Y-19485259D01*
X92670533Y-19523354D01*
X92594342Y-19523354D01*
X92480056Y-19485259D01*
X92441961Y-19447164D01*
X92441961Y-19180497D01*
X92594342Y-19180497D01*
X92099104Y-19523354D02*
X92099104Y-18723354D01*
X91641961Y-19523354D01*
X91641961Y-18723354D01*
X91261009Y-19523354D02*
X91261009Y-18723354D01*
X91070533Y-18723354D01*
X90956247Y-18761450D01*
X90880056Y-18837640D01*
X90841961Y-18913830D01*
X90803866Y-19066211D01*
X90803866Y-19180497D01*
X90841961Y-19332878D01*
X90880056Y-19409069D01*
X90956247Y-19485259D01*
X91070533Y-19523354D01*
X91261009Y-19523354D01*
X92670533Y-23803354D02*
X92594342Y-23803354D01*
X92518152Y-23841450D01*
X92480056Y-23879545D01*
X92441961Y-23955735D01*
X92403866Y-24108116D01*
X92403866Y-24298592D01*
X92441961Y-24450973D01*
X92480056Y-24527164D01*
X92518152Y-24565259D01*
X92594342Y-24603354D01*
X92670533Y-24603354D01*
X92746723Y-24565259D01*
X92784818Y-24527164D01*
X92822913Y-24450973D01*
X92861009Y-24298592D01*
X92861009Y-24108116D01*
X92822913Y-23955735D01*
X92784818Y-23879545D01*
X92746723Y-23841450D01*
X92670533Y-23803354D01*
X92099104Y-23879545D02*
X92061009Y-23841450D01*
X91984818Y-23803354D01*
X91794342Y-23803354D01*
X91718152Y-23841450D01*
X91680056Y-23879545D01*
X91641961Y-23955735D01*
X91641961Y-24031926D01*
X91680056Y-24146211D01*
X92137199Y-24603354D01*
X91641961Y-24603354D01*
X91146723Y-23803354D02*
X91070533Y-23803354D01*
X90994342Y-23841450D01*
X90956247Y-23879545D01*
X90918152Y-23955735D01*
X90880056Y-24108116D01*
X90880056Y-24298592D01*
X90918152Y-24450973D01*
X90956247Y-24527164D01*
X90994342Y-24565259D01*
X91070533Y-24603354D01*
X91146723Y-24603354D01*
X91222913Y-24565259D01*
X91261009Y-24527164D01*
X91299104Y-24450973D01*
X91337199Y-24298592D01*
X91337199Y-24108116D01*
X91299104Y-23955735D01*
X91261009Y-23879545D01*
X91222913Y-23841450D01*
X91146723Y-23803354D01*
X92403866Y-37303354D02*
X92861009Y-37303354D01*
X92632437Y-37303354D02*
X92632437Y-36503354D01*
X92708628Y-36617640D01*
X92784818Y-36693830D01*
X92861009Y-36731926D01*
X91908628Y-36503354D02*
X91832437Y-36503354D01*
X91756247Y-36541450D01*
X91718152Y-36579545D01*
X91680056Y-36655735D01*
X91641961Y-36808116D01*
X91641961Y-36998592D01*
X91680056Y-37150973D01*
X91718152Y-37227164D01*
X91756247Y-37265259D01*
X91832437Y-37303354D01*
X91908628Y-37303354D01*
X91984818Y-37265259D01*
X92022913Y-37227164D01*
X92061009Y-37150973D01*
X92099104Y-36998592D01*
X92099104Y-36808116D01*
X92061009Y-36655735D01*
X92022913Y-36579545D01*
X91984818Y-36541450D01*
X91908628Y-36503354D01*
X90956247Y-36770021D02*
X90956247Y-37303354D01*
X91146723Y-36465259D02*
X91337199Y-37036688D01*
X90841961Y-37036688D01*
X92670533Y-21263354D02*
X92594342Y-21263354D01*
X92518152Y-21301450D01*
X92480056Y-21339545D01*
X92441961Y-21415735D01*
X92403866Y-21568116D01*
X92403866Y-21758592D01*
X92441961Y-21910973D01*
X92480056Y-21987164D01*
X92518152Y-22025259D01*
X92594342Y-22063354D01*
X92670533Y-22063354D01*
X92746723Y-22025259D01*
X92784818Y-21987164D01*
X92822913Y-21910973D01*
X92861009Y-21758592D01*
X92861009Y-21568116D01*
X92822913Y-21415735D01*
X92784818Y-21339545D01*
X92746723Y-21301450D01*
X92670533Y-21263354D01*
X91641961Y-22063354D02*
X92099104Y-22063354D01*
X91870533Y-22063354D02*
X91870533Y-21263354D01*
X91946723Y-21377640D01*
X92022913Y-21453830D01*
X92099104Y-21491926D01*
X91375294Y-21263354D02*
X90841961Y-21263354D01*
X91184818Y-22063354D01*
X92403866Y-39843354D02*
X92861009Y-39843354D01*
X92632437Y-39843354D02*
X92632437Y-39043354D01*
X92708628Y-39157640D01*
X92784818Y-39233830D01*
X92861009Y-39271926D01*
X91908628Y-39043354D02*
X91832437Y-39043354D01*
X91756247Y-39081450D01*
X91718152Y-39119545D01*
X91680056Y-39195735D01*
X91641961Y-39348116D01*
X91641961Y-39538592D01*
X91680056Y-39690973D01*
X91718152Y-39767164D01*
X91756247Y-39805259D01*
X91832437Y-39843354D01*
X91908628Y-39843354D01*
X91984818Y-39805259D01*
X92022913Y-39767164D01*
X92061009Y-39690973D01*
X92099104Y-39538592D01*
X92099104Y-39348116D01*
X92061009Y-39195735D01*
X92022913Y-39119545D01*
X91984818Y-39081450D01*
X91908628Y-39043354D01*
X90956247Y-39043354D02*
X91108628Y-39043354D01*
X91184818Y-39081450D01*
X91222913Y-39119545D01*
X91299104Y-39233830D01*
X91337199Y-39386211D01*
X91337199Y-39690973D01*
X91299104Y-39767164D01*
X91261009Y-39805259D01*
X91184818Y-39843354D01*
X91032437Y-39843354D01*
X90956247Y-39805259D01*
X90918152Y-39767164D01*
X90880056Y-39690973D01*
X90880056Y-39500497D01*
X90918152Y-39424307D01*
X90956247Y-39386211D01*
X91032437Y-39348116D01*
X91184818Y-39348116D01*
X91261009Y-39386211D01*
X91299104Y-39424307D01*
X91337199Y-39500497D01*
X92670533Y-33963354D02*
X92594342Y-33963354D01*
X92518152Y-34001450D01*
X92480056Y-34039545D01*
X92441961Y-34115735D01*
X92403866Y-34268116D01*
X92403866Y-34458592D01*
X92441961Y-34610973D01*
X92480056Y-34687164D01*
X92518152Y-34725259D01*
X92594342Y-34763354D01*
X92670533Y-34763354D01*
X92746723Y-34725259D01*
X92784818Y-34687164D01*
X92822913Y-34610973D01*
X92861009Y-34458592D01*
X92861009Y-34268116D01*
X92822913Y-34115735D01*
X92784818Y-34039545D01*
X92746723Y-34001450D01*
X92670533Y-33963354D01*
X91641961Y-34763354D02*
X92099104Y-34763354D01*
X91870533Y-34763354D02*
X91870533Y-33963354D01*
X91946723Y-34077640D01*
X92022913Y-34153830D01*
X92099104Y-34191926D01*
X90880056Y-34763354D02*
X91337199Y-34763354D01*
X91108628Y-34763354D02*
X91108628Y-33963354D01*
X91184818Y-34077640D01*
X91261009Y-34153830D01*
X91337199Y-34191926D01*
X92670533Y-26343354D02*
X92594342Y-26343354D01*
X92518152Y-26381450D01*
X92480056Y-26419545D01*
X92441961Y-26495735D01*
X92403866Y-26648116D01*
X92403866Y-26838592D01*
X92441961Y-26990973D01*
X92480056Y-27067164D01*
X92518152Y-27105259D01*
X92594342Y-27143354D01*
X92670533Y-27143354D01*
X92746723Y-27105259D01*
X92784818Y-27067164D01*
X92822913Y-26990973D01*
X92861009Y-26838592D01*
X92861009Y-26648116D01*
X92822913Y-26495735D01*
X92784818Y-26419545D01*
X92746723Y-26381450D01*
X92670533Y-26343354D01*
X92099104Y-26419545D02*
X92061009Y-26381450D01*
X91984818Y-26343354D01*
X91794342Y-26343354D01*
X91718152Y-26381450D01*
X91680056Y-26419545D01*
X91641961Y-26495735D01*
X91641961Y-26571926D01*
X91680056Y-26686211D01*
X92137199Y-27143354D01*
X91641961Y-27143354D01*
X91337199Y-26419545D02*
X91299104Y-26381450D01*
X91222913Y-26343354D01*
X91032437Y-26343354D01*
X90956247Y-26381450D01*
X90918152Y-26419545D01*
X90880056Y-26495735D01*
X90880056Y-26571926D01*
X90918152Y-26686211D01*
X91375294Y-27143354D01*
X90880056Y-27143354D01*
X92403866Y-32223354D02*
X92861009Y-32223354D01*
X92632437Y-32223354D02*
X92632437Y-31423354D01*
X92708628Y-31537640D01*
X92784818Y-31613830D01*
X92861009Y-31651926D01*
X91908628Y-31423354D02*
X91832437Y-31423354D01*
X91756247Y-31461450D01*
X91718152Y-31499545D01*
X91680056Y-31575735D01*
X91641961Y-31728116D01*
X91641961Y-31918592D01*
X91680056Y-32070973D01*
X91718152Y-32147164D01*
X91756247Y-32185259D01*
X91832437Y-32223354D01*
X91908628Y-32223354D01*
X91984818Y-32185259D01*
X92022913Y-32147164D01*
X92061009Y-32070973D01*
X92099104Y-31918592D01*
X92099104Y-31728116D01*
X92061009Y-31575735D01*
X92022913Y-31499545D01*
X91984818Y-31461450D01*
X91908628Y-31423354D01*
X91146723Y-31423354D02*
X91070533Y-31423354D01*
X90994342Y-31461450D01*
X90956247Y-31499545D01*
X90918152Y-31575735D01*
X90880056Y-31728116D01*
X90880056Y-31918592D01*
X90918152Y-32070973D01*
X90956247Y-32147164D01*
X90994342Y-32185259D01*
X91070533Y-32223354D01*
X91146723Y-32223354D01*
X91222913Y-32185259D01*
X91261009Y-32147164D01*
X91299104Y-32070973D01*
X91337199Y-31918592D01*
X91337199Y-31728116D01*
X91299104Y-31575735D01*
X91261009Y-31499545D01*
X91222913Y-31461450D01*
X91146723Y-31423354D01*
%TO.C,BT1*%
X100185134Y-57205367D02*
X99804181Y-57865196D01*
X99169134Y-58965131D02*
X98788181Y-59624960D01*
X99308572Y-59485522D02*
X98648743Y-59104570D01*
%TD*%
M02*
