M48
; DRILL file {KiCad (5.1.9-0-10_14)} date Thursday, October 14, 2021 at 09:57:35 PM
; FORMAT={-:-/ absolute / inch / decimal}
; #@! TF.CreationDate,2021-10-14T21:57:35+01:00
; #@! TF.GenerationSoftware,Kicad,Pcbnew,(5.1.9-0-10_14)
FMAT,2
INCH
T1C0.0157
T2C0.0295
T3C0.0320
T4C0.0354
T5C0.0394
T6C0.0430
T7C0.0512
T8C0.0591
T9C0.0669
T10C0.0866
T11C0.1161
T12C0.1567
T13C0.1693
%
G90
G05
T1
X-1.4265Y-0.1812
X-1.4265Y-0.9312
X-1.4265Y-1.6812
X-0.7765Y-0.9312
X-0.7765Y-0.1812
X-0.7765Y-1.6812
X-0.7265Y-1.6312
X-0.6765Y-0.1812
X-0.6765Y-0.9312
X-0.6765Y-1.6812
X-0.0265Y-0.1812
X-0.0265Y-0.9312
X-0.0265Y-1.6812
X0.0735Y-0.7562
X0.0735Y-0.0062
X0.0735Y-1.5062
X0.7235Y-0.0062
X0.7235Y-1.5062
X0.7235Y-0.7562
X0.8235Y0.0938
X0.8235Y-0.6562
X0.8235Y-1.4062
X1.4735Y0.0938
X1.4735Y-0.6562
X1.4735Y-1.4062
X1.5735Y-0.0062
X1.5735Y-0.7562
X1.5735Y-1.5062
X1.8799Y-2.303
X1.8985Y-1.5562
X2.2235Y-1.5062
X2.2235Y-0.0062
X2.2235Y-0.7562
X2.3235Y-0.0812
X2.3235Y-0.8312
X2.3235Y-1.5812
X2.5077Y-2.4712
X2.7985Y-2.3312
X2.8263Y-2.359
X2.9735Y-0.8312
X2.9735Y-1.5812
X2.9735Y-0.0812
X2.9805Y-1.9492
X3.0485Y-2.0812
X3.0527Y-3.1959
X3.0763Y-2.109
X3.3485Y-1.8562
X3.3777Y-2.6329
X3.4465Y-2.0282
X3.4898Y-2.0532
X3.5331Y-2.0782
X3.557Y-0.4544
X3.557Y-0.6544
X3.557Y-0.7544
X3.557Y-1.1794
X3.557Y-1.2794
X3.557Y-1.4294
X3.557Y-1.4794
X3.557Y-1.3794
X3.557Y-0.8544
X3.557Y-0.9544
X3.557Y-1.0294
X3.557Y-1.0794
X3.557Y-1.1294
X3.557Y-1.2294
X3.557Y-1.5794
X3.557Y-0.5544
X3.557Y-1.3294
X3.557Y-1.5294
X3.7022Y-3.5709
X4.0272Y-3.0079
T2
X3.9726Y-2.3775
X4.012Y-2.3093
T3
X-1.2515Y-1.4312
X-1.2515Y-1.5312
X-1.2515Y-0.6812
X-0.9515Y-1.4312
X-0.9515Y-1.5312
X-0.9515Y-0.6812
X-0.5015Y-1.4312
X-0.5015Y-1.5312
X-0.5015Y-0.6812
X-0.2015Y-1.4312
X-0.2015Y-1.5312
X-0.2015Y-0.6812
X0.2485Y-0.5062
X0.2485Y-1.2562
X0.2485Y-1.3562
X0.5485Y-0.5062
X0.5485Y-1.2562
X0.5485Y-1.3562
X0.9985Y-0.4062
X0.9985Y-2.0062
X0.9985Y-1.1562
X0.9985Y-1.2562
X1.2985Y-0.4062
X1.2985Y-2.0062
X1.2985Y-1.1562
X1.2985Y-1.2562
X1.7485Y-1.3562
X1.7485Y-0.5062
X1.7485Y-1.2562
X2.0485Y-1.3562
X2.0485Y-0.5062
X2.0485Y-1.2562
X2.0877Y-2.2034
X2.3775Y-2.2811
X2.4985Y-0.5812
X2.4985Y-1.3312
X2.4985Y-1.4312
X2.7985Y-0.5812
X2.7985Y-1.3312
X2.7985Y-1.4312
X3.1455Y-2.411
X3.1766Y-2.0457
X3.2266Y-1.959
X3.2766Y-1.8724
X3.3266Y-1.7858
X3.4053Y-2.561
X3.7933Y-2.7849
X4.0531Y-2.9349
T4
X4.2898Y-2.627
X4.339Y-2.5418
X4.3882Y-2.4565
X4.4023Y-2.692
X4.4515Y-2.6067
X4.5007Y-2.5215
T5
X0.8729Y-2.2327
X0.8729Y-2.4296
X1.4438Y-2.2327
X1.4438Y-2.3311
X1.4438Y-2.4296
T6
X3.257Y-0.4544
X3.257Y-0.5544
X3.257Y-0.6544
X3.257Y-0.7544
X3.257Y-0.8544
X3.257Y-0.9544
X3.257Y-1.0544
X3.257Y-1.1544
X3.257Y-1.2544
X3.257Y-1.3544
X3.257Y-1.4544
X3.257Y-1.5544
X3.857Y-0.4544
X3.857Y-0.5544
X3.857Y-0.6544
X3.857Y-0.7544
X3.857Y-0.8544
X3.857Y-0.9544
X3.857Y-1.0544
X3.857Y-1.1544
X3.857Y-1.2544
X3.857Y-1.3544
X3.857Y-1.4544
X3.857Y-1.5544
T7
X3.991Y-0.8264
X3.991Y-1.0823
T9
X-1.3015Y-1.1062
X-1.3015Y-1.8562
X-1.3015Y-0.3562
X-0.9015Y-1.1062
X-0.9015Y-1.8562
X-0.9015Y-0.3562
X-0.5515Y-0.3562
X-0.5515Y-1.1062
X-0.5515Y-1.8562
X-0.1515Y-0.3562
X-0.1515Y-1.1062
X-0.1515Y-1.8562
X0.1985Y-1.6812
X0.1985Y-0.9312
X0.1985Y-0.1812
X0.5985Y-1.6812
X0.5985Y-0.9312
X0.5985Y-0.1812
X0.9485Y-0.0812
X0.9485Y-0.8312
X0.9485Y-1.5812
X1.3485Y-0.0812
X1.3485Y-0.8312
X1.3485Y-1.5812
X1.6985Y-0.1812
X1.6985Y-0.9312
X1.6985Y-1.6812
X1.9553Y-2.5044
X2.0985Y-0.1812
X2.0985Y-0.9312
X2.0985Y-1.6812
X2.3417Y-2.6079
X2.4485Y-0.2562
X2.4485Y-1.0062
X2.4485Y-1.7562
X2.8485Y-0.2562
X2.8485Y-1.0062
X2.8485Y-1.7562
X2.9737Y-3.0046
X3.1737Y-2.6582
X3.6232Y-3.3796
X3.8232Y-3.0332
T10
X3.1229Y-0.3349
X3.1229Y-2.2097
X3.991Y-0.3349
X4.2792Y-2.8773
X4.5981Y-2.3249
T11
X-1.2515Y-1.0062
X-1.2515Y-1.7562
X-1.2515Y-0.2562
X-1.2015Y-0.9062
X-1.2015Y-1.6562
X-1.2015Y-0.1562
X-1.0015Y-0.9062
X-1.0015Y-1.6562
X-1.0015Y-0.1562
X-0.9515Y-1.0062
X-0.9515Y-1.7562
X-0.9515Y-0.2562
X-0.5015Y-0.2562
X-0.5015Y-1.0062
X-0.5015Y-1.7562
X-0.4515Y-0.1562
X-0.4515Y-0.9062
X-0.4515Y-1.6562
X-0.2515Y-0.1562
X-0.2515Y-0.9062
X-0.2515Y-1.6562
X-0.2015Y-0.2562
X-0.2015Y-1.0062
X-0.2015Y-1.7562
X0.2485Y-1.5812
X0.2485Y-0.8312
X0.2485Y-0.0812
X0.2985Y-1.4812
X0.2985Y-0.7312
X0.2985Y0.0188
X0.4985Y-1.4812
X0.4985Y-0.7312
X0.4985Y0.0188
X0.5485Y-1.5812
X0.5485Y-0.8312
X0.5485Y-0.0812
X0.9985Y0.0188
X0.9985Y-0.7312
X0.9985Y-1.4812
X1.0485Y0.1188
X1.0485Y-0.6312
X1.0485Y-1.3812
X1.2485Y0.1188
X1.2485Y-0.6312
X1.2485Y-1.3812
X1.2985Y0.0188
X1.2985Y-0.7312
X1.2985Y-1.4812
X1.7485Y-0.0812
X1.7485Y-0.8312
X1.7485Y-1.5812
X1.7985Y0.0188
X1.7985Y-0.7312
X1.7985Y-1.4812
X1.9985Y0.0188
X1.9985Y-0.7312
X1.9985Y-1.4812
X2.0295Y-2.4207
X2.0485Y-0.0812
X2.0485Y-0.8312
X2.0485Y-1.5812
X2.1037Y-2.3371
X2.2968Y-2.3889
X2.3193Y-2.4984
X2.4985Y-0.1562
X2.4985Y-0.9062
X2.4985Y-1.6562
X2.5485Y-0.0562
X2.5485Y-0.8062
X2.5485Y-1.5562
X2.7485Y-0.0562
X2.7485Y-0.8062
X2.7485Y-1.5562
X2.7985Y-0.1562
X2.7985Y-0.9062
X2.7985Y-1.6562
X3.0853Y-3.0113
X3.1969Y-3.018
X3.2353Y-2.7515
X3.2969Y-2.8448
X3.7348Y-3.3863
X3.8464Y-3.393
X3.8848Y-3.1265
X3.9464Y-3.2198
T12
X-1.1015Y-1.1062
X-1.1015Y-1.8562
X-1.1015Y-0.3562
X-0.3515Y-0.3562
X-0.3515Y-1.1062
X-0.3515Y-1.8562
X0.3985Y-1.6812
X0.3985Y-0.9312
X0.3985Y-0.1812
X1.1485Y-0.0812
X1.1485Y-0.8312
X1.1485Y-1.5812
X1.8985Y-0.1812
X1.8985Y-0.9312
X1.8985Y-1.6812
X2.1485Y-2.5562
X2.6485Y-0.2562
X2.6485Y-1.0062
X2.6485Y-1.7562
X3.0737Y-2.8314
X3.7232Y-3.2064
T13
X-0.7265Y-0.7312
X-0.7265Y-1.4812
X2.2735Y-0.5936
X2.2735Y-1.9664
X3.3984Y-3.0189
T8
G00X1.1741Y-2.1107
M15
G01X1.1229Y-2.1107
M16
G05
G00X1.1741Y-2.5516
M15
G01X1.1229Y-2.5516
M16
G05
T0
M30
