%TF.GenerationSoftware,KiCad,Pcbnew,(5.1.9-0-10_14)*%
%TF.CreationDate,2021-10-14T21:57:33+01:00*%
%TF.ProjectId,edoxpcb,65646f78-7063-4622-9e6b-696361645f70,rev?*%
%TF.SameCoordinates,Original*%
%TF.FileFunction,Profile,NP*%
%FSLAX46Y46*%
G04 Gerber Fmt 4.6, Leading zero omitted, Abs format (unit mm)*
G04 Created by KiCad (PCBNEW (5.1.9-0-10_14)) date 2021-10-14 21:57:33*
%MOMM*%
%LPD*%
G01*
G04 APERTURE LIST*
%TA.AperFunction,Profile*%
%ADD10C,0.050000*%
%TD*%
G04 APERTURE END LIST*
D10*
X40221532Y5453551D02*
G75*
G02*
X39221532Y6453551I0J1000000D01*
G01*
X97622533Y-96252422D02*
G75*
G02*
X96256507Y-96618448I-866026J500000D01*
G01*
X118656507Y-57820447D02*
G75*
G02*
X119022532Y-59186472I-500000J-866025D01*
G01*
X71533Y2003553D02*
G75*
G02*
X-928466Y1003552I-1000000J-1D01*
G01*
X71531Y4453553D02*
G75*
G02*
X1071532Y5453552I1000000J-1D01*
G01*
X19121531Y6453551D02*
G75*
G02*
X18121532Y5453552I-999999J0D01*
G01*
X19121532Y6993554D02*
G75*
G02*
X20121532Y7993554I1000000J0D01*
G01*
X38221533Y7993550D02*
G75*
G02*
X39221532Y6993549I-1J-1000000D01*
G01*
X59121531Y3543549D02*
G75*
G02*
X58271530Y4393550I0J850001D01*
G01*
X57421531Y5453552D02*
G75*
G02*
X58271532Y4603551I0J-850001D01*
G01*
X76321532Y3543553D02*
G75*
G02*
X77321532Y2543553I0J-1000000D01*
G01*
X78321531Y-6506449D02*
G75*
G02*
X77321531Y-5506449I0J1000000D01*
G01*
X102371530Y-6506448D02*
G75*
G02*
X103371531Y-7506449I0J-1000001D01*
G01*
X20121532Y-69296450D02*
G75*
G02*
X19121532Y-68296450I0J1000000D01*
G01*
X18121531Y-52746451D02*
G75*
G02*
X19121532Y-53746450I1J-1000000D01*
G01*
X1121532Y-53746450D02*
G75*
G02*
X2121532Y-52746450I1000000J0D01*
G01*
X1121533Y-56196451D02*
G75*
G02*
X121531Y-57196451I-1000001J1D01*
G01*
X-37028466Y-57196450D02*
G75*
G02*
X-38028466Y-56196450I0J1000000D01*
G01*
X-38028469Y3551D02*
G75*
G02*
X-37028468Y1003552I1000001J0D01*
G01*
X-928466Y1003552D02*
X-37028468Y1003552D01*
X71531Y4453553D02*
X71533Y2003553D01*
X18121532Y5453552D02*
X1071532Y5453552D01*
X19121532Y6993554D02*
X19121531Y6453551D01*
X38221533Y7993550D02*
X20121532Y7993554D01*
X39221532Y6453551D02*
X39221532Y6993549D01*
X57421531Y5453552D02*
X40221532Y5453551D01*
X58271530Y4393550D02*
X58271532Y4603551D01*
X76321532Y3543553D02*
X59121531Y3543549D01*
X77321531Y-5506449D02*
X77321532Y2543553D01*
X102371530Y-6506448D02*
X78321531Y-6506449D01*
X103371532Y-48895447D02*
X103371531Y-7506449D01*
X118656507Y-57820447D02*
X103371532Y-48895447D01*
X97622533Y-96252422D02*
X119022532Y-59186472D01*
X63554532Y-77738450D02*
X96256507Y-96618448D01*
X31901532Y-69296449D02*
X63554532Y-77738450D01*
X20121532Y-69296450D02*
X31901532Y-69296449D01*
X19121532Y-53746450D02*
X19121532Y-68296450D01*
X2121532Y-52746450D02*
X18121531Y-52746451D01*
X1121533Y-56196451D02*
X1121532Y-53746450D01*
X-37028466Y-57196450D02*
X121531Y-57196451D01*
X-38028469Y3551D02*
X-38028466Y-56196450D01*
M02*
