%TF.GenerationSoftware,KiCad,Pcbnew,(5.1.9-0-10_14)*%
%TF.CreationDate,2021-10-14T21:57:33+01:00*%
%TF.ProjectId,edoxpcb,65646f78-7063-4622-9e6b-696361645f70,rev?*%
%TF.SameCoordinates,Original*%
%TF.FileFunction,Legend,Top*%
%TF.FilePolarity,Positive*%
%FSLAX46Y46*%
G04 Gerber Fmt 4.6, Leading zero omitted, Abs format (unit mm)*
G04 Created by KiCad (PCBNEW (5.1.9-0-10_14)) date 2021-10-14 21:57:33*
%MOMM*%
%LPD*%
G01*
G04 APERTURE LIST*
%ADD10C,0.120000*%
%ADD11C,0.150000*%
G04 APERTURE END LIST*
D10*
%TO.C,SW32*%
X32172154Y-59210810D02*
G75*
G03*
X32172154Y-59210810I-3000000J0D01*
G01*
X29172154Y-59710810D02*
X29172154Y-58710810D01*
X29672154Y-59210810D02*
X28672154Y-59210810D01*
D11*
%TO.C,SW25*%
X73406536Y-39526447D02*
X73406536Y-43741447D01*
X62406536Y-37856447D02*
X62406536Y-42066447D01*
X68136536Y-42066447D02*
X62406536Y-42066447D01*
X73406536Y-43741447D02*
X69811536Y-43741447D01*
X71731536Y-37851447D02*
X62406536Y-37851447D01*
X69811536Y-43741447D02*
G75*
G03*
X68136536Y-42066447I-1675000J0D01*
G01*
X73406536Y-39526447D02*
G75*
G03*
X71731536Y-37851447I-1675000J0D01*
G01*
D10*
%TO.C,JPRSTF1*%
X94076533Y-15621449D02*
X95476533Y-15621449D01*
X96176533Y-16321449D02*
X96176533Y-16921449D01*
X95476533Y-17621449D02*
X94076533Y-17621449D01*
X93376533Y-16921449D02*
X93376533Y-16321449D01*
X93376533Y-16321449D02*
G75*
G02*
X94076533Y-15621449I700000J0D01*
G01*
X94076533Y-17621449D02*
G75*
G02*
X93376533Y-16921449I0J700000D01*
G01*
X96176533Y-16921449D02*
G75*
G02*
X95476533Y-17621449I-700000J0D01*
G01*
X95476533Y-15621449D02*
G75*
G02*
X96176533Y-16321449I0J-700000D01*
G01*
%TO.C,JPOVCCF1*%
X85477818Y-52947328D02*
X84265382Y-52247328D01*
X84009164Y-51291111D02*
X84309164Y-50771495D01*
X85265382Y-50515278D02*
X86477818Y-51215278D01*
X86734036Y-52171495D02*
X86434036Y-52691111D01*
X86434035Y-52691111D02*
G75*
G02*
X85477818Y-52947328I-606217J350000D01*
G01*
X86477818Y-51215277D02*
G75*
G02*
X86734036Y-52171495I-350000J-606218D01*
G01*
X84309165Y-50771495D02*
G75*
G02*
X85265382Y-50515278I606217J-350000D01*
G01*
X84265382Y-52247329D02*
G75*
G02*
X84009164Y-51291111I350000J606218D01*
G01*
%TO.C,JPOSDAF1*%
X88017820Y-48547919D02*
X86805384Y-47847919D01*
X86549166Y-46891702D02*
X86849166Y-46372086D01*
X87805384Y-46115869D02*
X89017820Y-46815869D01*
X89274038Y-47772086D02*
X88974038Y-48291702D01*
X88974037Y-48291702D02*
G75*
G02*
X88017820Y-48547919I-606217J350000D01*
G01*
X89017820Y-46815868D02*
G75*
G02*
X89274038Y-47772086I-350000J-606218D01*
G01*
X86849167Y-46372086D02*
G75*
G02*
X87805384Y-46115869I606217J-350000D01*
G01*
X86805384Y-47847920D02*
G75*
G02*
X86549166Y-46891702I350000J606218D01*
G01*
%TO.C,JPOSCLF1*%
X86747822Y-50747622D02*
X85535386Y-50047622D01*
X85279168Y-49091405D02*
X85579168Y-48571789D01*
X86535386Y-48315572D02*
X87747822Y-49015572D01*
X88004040Y-49971789D02*
X87704040Y-50491405D01*
X87704039Y-50491405D02*
G75*
G02*
X86747822Y-50747622I-606217J350000D01*
G01*
X87747822Y-49015571D02*
G75*
G02*
X88004040Y-49971789I-350000J-606218D01*
G01*
X85579169Y-48571789D02*
G75*
G02*
X86535386Y-48315572I606217J-350000D01*
G01*
X85535386Y-50047623D02*
G75*
G02*
X85279168Y-49091405I350000J606218D01*
G01*
%TO.C,JPOGNDF1*%
X84207819Y-55147032D02*
X82995383Y-54447032D01*
X82739165Y-53490815D02*
X83039165Y-52971199D01*
X83995383Y-52714982D02*
X85207819Y-53414982D01*
X85464037Y-54371199D02*
X85164037Y-54890815D01*
X85164036Y-54890815D02*
G75*
G02*
X84207819Y-55147032I-606217J350000D01*
G01*
X85207819Y-53414981D02*
G75*
G02*
X85464037Y-54371199I-350000J-606218D01*
G01*
X83039166Y-52971199D02*
G75*
G02*
X83995383Y-52714982I606217J-350000D01*
G01*
X82995383Y-54447033D02*
G75*
G02*
X82739165Y-53490815I350000J606218D01*
G01*
D11*
%TO.C,SW35*%
X95901442Y-89294514D02*
X92251145Y-87187014D01*
X102847704Y-80603234D02*
X99201738Y-78498234D01*
X96336738Y-83460560D02*
X99201738Y-78498234D01*
X92251145Y-87187014D02*
X94048645Y-84073653D01*
X98189535Y-88681421D02*
X102852035Y-80605734D01*
X94048645Y-84073653D02*
G75*
G03*
X96336738Y-83460560I837500J1450593D01*
G01*
X95901442Y-89294514D02*
G75*
G03*
X98189535Y-88681421I837500J1450593D01*
G01*
%TO.C,SW34*%
X79403444Y-79769515D02*
X75753147Y-77662015D01*
X86349706Y-71078235D02*
X82703740Y-68973235D01*
X79838740Y-73935561D02*
X82703740Y-68973235D01*
X75753147Y-77662015D02*
X77550647Y-74548654D01*
X81691537Y-79156422D02*
X86354037Y-71080735D01*
X77550647Y-74548654D02*
G75*
G03*
X79838740Y-73935561I837500J1450593D01*
G01*
X79403444Y-79769515D02*
G75*
G03*
X81691537Y-79156422I837500J1450593D01*
G01*
%TO.C,SW33*%
X61812287Y-61607397D02*
X60721364Y-65678774D01*
X51619330Y-57147291D02*
X50529702Y-61213839D01*
X56064457Y-62696872D02*
X50529702Y-61213839D01*
X60721364Y-65678774D02*
X57248861Y-64748320D01*
X60627883Y-59555949D02*
X51620625Y-57142461D01*
X57248861Y-64748320D02*
G75*
G03*
X56064457Y-62696872I-1617926J433522D01*
G01*
X61812287Y-61607397D02*
G75*
G03*
X60627883Y-59555949I-1617926J433522D01*
G01*
%TO.C,SW24*%
X54356532Y-37621449D02*
X54356532Y-41836449D01*
X43356532Y-35951449D02*
X43356532Y-40161449D01*
X49086532Y-40161449D02*
X43356532Y-40161449D01*
X54356532Y-41836449D02*
X50761532Y-41836449D01*
X52681532Y-35946449D02*
X43356532Y-35946449D01*
X50761532Y-41836449D02*
G75*
G03*
X49086532Y-40161449I-1675000J0D01*
G01*
X54356532Y-37621449D02*
G75*
G03*
X52681532Y-35946449I-1675000J0D01*
G01*
%TO.C,SW23*%
X35306535Y-35081449D02*
X35306535Y-39296449D01*
X24306535Y-33411449D02*
X24306535Y-37621449D01*
X30036535Y-37621449D02*
X24306535Y-37621449D01*
X35306535Y-39296449D02*
X31711535Y-39296449D01*
X33631535Y-33406449D02*
X24306535Y-33406449D01*
X31711535Y-39296449D02*
G75*
G03*
X30036535Y-37621449I-1675000J0D01*
G01*
X35306535Y-35081449D02*
G75*
G03*
X33631535Y-33406449I-1675000J0D01*
G01*
%TO.C,SW22*%
X16256532Y-37621449D02*
X16256532Y-41836449D01*
X5256532Y-35951449D02*
X5256532Y-40161449D01*
X10986532Y-40161449D02*
X5256532Y-40161449D01*
X16256532Y-41836449D02*
X12661532Y-41836449D01*
X14581532Y-35946449D02*
X5256532Y-35946449D01*
X12661532Y-41836449D02*
G75*
G03*
X10986532Y-40161449I-1675000J0D01*
G01*
X16256532Y-37621449D02*
G75*
G03*
X14581532Y-35946449I-1675000J0D01*
G01*
%TO.C,SW21*%
X-2793468Y-42066449D02*
X-2793468Y-46281449D01*
X-13793468Y-40396449D02*
X-13793468Y-44606449D01*
X-8063468Y-44606449D02*
X-13793468Y-44606449D01*
X-2793468Y-46281449D02*
X-6388468Y-46281449D01*
X-4468468Y-40391449D02*
X-13793468Y-40391449D01*
X-6388468Y-46281449D02*
G75*
G03*
X-8063468Y-44606449I-1675000J0D01*
G01*
X-2793468Y-42066449D02*
G75*
G03*
X-4468468Y-40391449I-1675000J0D01*
G01*
%TO.C,SW20*%
X-21843468Y-42066449D02*
X-21843468Y-46281449D01*
X-32843468Y-40396449D02*
X-32843468Y-44606449D01*
X-27113468Y-44606449D02*
X-32843468Y-44606449D01*
X-21843468Y-46281449D02*
X-25438468Y-46281449D01*
X-23518468Y-40391449D02*
X-32843468Y-40391449D01*
X-25438468Y-46281449D02*
G75*
G03*
X-27113468Y-44606449I-1675000J0D01*
G01*
X-21843468Y-42066449D02*
G75*
G03*
X-23518468Y-40391449I-1675000J0D01*
G01*
%TO.C,SW15*%
X73406534Y-20476446D02*
X73406534Y-24691446D01*
X62406534Y-18806446D02*
X62406534Y-23016446D01*
X68136534Y-23016446D02*
X62406534Y-23016446D01*
X73406534Y-24691446D02*
X69811534Y-24691446D01*
X71731534Y-18801446D02*
X62406534Y-18801446D01*
X69811534Y-24691446D02*
G75*
G03*
X68136534Y-23016446I-1675000J0D01*
G01*
X73406534Y-20476446D02*
G75*
G03*
X71731534Y-18801446I-1675000J0D01*
G01*
%TO.C,SW14*%
X54356532Y-18571449D02*
X54356532Y-22786449D01*
X43356532Y-16901449D02*
X43356532Y-21111449D01*
X49086532Y-21111449D02*
X43356532Y-21111449D01*
X54356532Y-22786449D02*
X50761532Y-22786449D01*
X52681532Y-16896449D02*
X43356532Y-16896449D01*
X50761532Y-22786449D02*
G75*
G03*
X49086532Y-21111449I-1675000J0D01*
G01*
X54356532Y-18571449D02*
G75*
G03*
X52681532Y-16896449I-1675000J0D01*
G01*
%TO.C,SW13*%
X35306535Y-16031449D02*
X35306535Y-20246449D01*
X24306535Y-14361449D02*
X24306535Y-18571449D01*
X30036535Y-18571449D02*
X24306535Y-18571449D01*
X35306535Y-20246449D02*
X31711535Y-20246449D01*
X33631535Y-14356449D02*
X24306535Y-14356449D01*
X31711535Y-20246449D02*
G75*
G03*
X30036535Y-18571449I-1675000J0D01*
G01*
X35306535Y-16031449D02*
G75*
G03*
X33631535Y-14356449I-1675000J0D01*
G01*
%TO.C,SW12*%
X16256535Y-18571450D02*
X16256535Y-22786450D01*
X5256535Y-16901450D02*
X5256535Y-21111450D01*
X10986535Y-21111450D02*
X5256535Y-21111450D01*
X16256535Y-22786450D02*
X12661535Y-22786450D01*
X14581535Y-16896450D02*
X5256535Y-16896450D01*
X12661535Y-22786450D02*
G75*
G03*
X10986535Y-21111450I-1675000J0D01*
G01*
X16256535Y-18571450D02*
G75*
G03*
X14581535Y-16896450I-1675000J0D01*
G01*
%TO.C,SW11*%
X-2793469Y-23016449D02*
X-2793469Y-27231449D01*
X-13793469Y-21346449D02*
X-13793469Y-25556449D01*
X-8063469Y-25556449D02*
X-13793469Y-25556449D01*
X-2793469Y-27231449D02*
X-6388469Y-27231449D01*
X-4468469Y-21341449D02*
X-13793469Y-21341449D01*
X-6388469Y-27231449D02*
G75*
G03*
X-8063469Y-25556449I-1675000J0D01*
G01*
X-2793469Y-23016449D02*
G75*
G03*
X-4468469Y-21341449I-1675000J0D01*
G01*
%TO.C,SW10*%
X-21843468Y-23016449D02*
X-21843468Y-27231449D01*
X-32843468Y-21346449D02*
X-32843468Y-25556449D01*
X-27113468Y-25556449D02*
X-32843468Y-25556449D01*
X-21843468Y-27231449D02*
X-25438468Y-27231449D01*
X-23518468Y-21341449D02*
X-32843468Y-21341449D01*
X-25438468Y-27231449D02*
G75*
G03*
X-27113468Y-25556449I-1675000J0D01*
G01*
X-21843468Y-23016449D02*
G75*
G03*
X-23518468Y-21341449I-1675000J0D01*
G01*
%TO.C,SW5*%
X73406531Y-1426449D02*
X73406531Y-5641449D01*
X62406531Y243551D02*
X62406531Y-3966449D01*
X68136531Y-3966449D02*
X62406531Y-3966449D01*
X73406531Y-5641449D02*
X69811531Y-5641449D01*
X71731531Y248551D02*
X62406531Y248551D01*
X69811531Y-5641449D02*
G75*
G03*
X68136531Y-3966449I-1675000J0D01*
G01*
X73406531Y-1426449D02*
G75*
G03*
X71731531Y248551I-1675000J0D01*
G01*
%TO.C,SW4*%
X54356532Y478549D02*
X54356532Y-3736451D01*
X43356532Y2148549D02*
X43356532Y-2061451D01*
X49086532Y-2061451D02*
X43356532Y-2061451D01*
X54356532Y-3736451D02*
X50761532Y-3736451D01*
X52681532Y2153549D02*
X43356532Y2153549D01*
X50761532Y-3736451D02*
G75*
G03*
X49086532Y-2061451I-1675000J0D01*
G01*
X54356532Y478549D02*
G75*
G03*
X52681532Y2153549I-1675000J0D01*
G01*
%TO.C,SW3*%
X35306534Y3018550D02*
X35306534Y-1196450D01*
X24306534Y4688550D02*
X24306534Y478550D01*
X30036534Y478550D02*
X24306534Y478550D01*
X35306534Y-1196450D02*
X31711534Y-1196450D01*
X33631534Y4693550D02*
X24306534Y4693550D01*
X31711534Y-1196450D02*
G75*
G03*
X30036534Y478550I-1675000J0D01*
G01*
X35306534Y3018550D02*
G75*
G03*
X33631534Y4693550I-1675000J0D01*
G01*
%TO.C,SW2*%
X16256536Y478550D02*
X16256536Y-3736450D01*
X5256536Y2148550D02*
X5256536Y-2061450D01*
X10986536Y-2061450D02*
X5256536Y-2061450D01*
X16256536Y-3736450D02*
X12661536Y-3736450D01*
X14581536Y2153550D02*
X5256536Y2153550D01*
X12661536Y-3736450D02*
G75*
G03*
X10986536Y-2061450I-1675000J0D01*
G01*
X16256536Y478550D02*
G75*
G03*
X14581536Y2153550I-1675000J0D01*
G01*
%TO.C,SW1*%
X-2793469Y-3966451D02*
X-2793469Y-8181451D01*
X-13793469Y-2296451D02*
X-13793469Y-6506451D01*
X-8063469Y-6506451D02*
X-13793469Y-6506451D01*
X-2793469Y-8181451D02*
X-6388469Y-8181451D01*
X-4468469Y-2291451D02*
X-13793469Y-2291451D01*
X-6388469Y-8181451D02*
G75*
G03*
X-8063469Y-6506451I-1675000J0D01*
G01*
X-2793469Y-3966451D02*
G75*
G03*
X-4468469Y-2291451I-1675000J0D01*
G01*
%TO.C,SW0*%
X-21843464Y-3966449D02*
X-21843464Y-8181449D01*
X-32843464Y-2296449D02*
X-32843464Y-6506449D01*
X-27113464Y-6506449D02*
X-32843464Y-6506449D01*
X-21843464Y-8181449D02*
X-25438464Y-8181449D01*
X-23518464Y-2291449D02*
X-32843464Y-2291449D01*
X-25438464Y-8181449D02*
G75*
G03*
X-27113464Y-6506449I-1675000J0D01*
G01*
X-21843464Y-3966449D02*
G75*
G03*
X-23518464Y-2291449I-1675000J0D01*
G01*
D10*
%TO.C,JP-F1*%
X105445307Y-61543621D02*
X104232871Y-60843621D01*
X103976653Y-59887404D02*
X104276653Y-59367788D01*
X105232871Y-59111571D02*
X106445307Y-59811571D01*
X106701525Y-60767788D02*
X106401525Y-61287404D01*
X106401524Y-61287404D02*
G75*
G02*
X105445307Y-61543621I-606217J350000D01*
G01*
X106445307Y-59811570D02*
G75*
G02*
X106701525Y-60767788I-350000J-606218D01*
G01*
X104276654Y-59367788D02*
G75*
G02*
X105232871Y-59111571I606217J-350000D01*
G01*
X104232871Y-60843622D02*
G75*
G02*
X103976653Y-59887404I350000J606218D01*
G01*
%TO.C,JP+F1*%
X104175307Y-63743326D02*
X102962871Y-63043326D01*
X102706653Y-62087109D02*
X103006653Y-61567493D01*
X103962871Y-61311276D02*
X105175307Y-62011276D01*
X105431525Y-62967493D02*
X105131525Y-63487109D01*
X105131524Y-63487109D02*
G75*
G02*
X104175307Y-63743326I-606217J350000D01*
G01*
X105175307Y-62011275D02*
G75*
G02*
X105431525Y-62967493I-350000J-606218D01*
G01*
X103006654Y-61567493D02*
G75*
G02*
X103962871Y-61311276I606217J-350000D01*
G01*
X102962871Y-63043327D02*
G75*
G02*
X102706653Y-62087109I350000J606218D01*
G01*
%TO.C,JPVCCF1*%
X94076531Y-18161447D02*
X95476531Y-18161447D01*
X96176531Y-18861447D02*
X96176531Y-19461447D01*
X95476531Y-20161447D02*
X94076531Y-20161447D01*
X93376531Y-19461447D02*
X93376531Y-18861447D01*
X93376531Y-18861447D02*
G75*
G02*
X94076531Y-18161447I700000J0D01*
G01*
X94076531Y-20161447D02*
G75*
G02*
X93376531Y-19461447I0J700000D01*
G01*
X96176531Y-19461447D02*
G75*
G02*
X95476531Y-20161447I-700000J0D01*
G01*
X95476531Y-18161447D02*
G75*
G02*
X96176531Y-18861447I0J-700000D01*
G01*
%TO.C,JPSDAF1*%
X86586533Y-22701449D02*
X85186533Y-22701449D01*
X84486533Y-22001449D02*
X84486533Y-21401449D01*
X85186533Y-20701449D02*
X86586533Y-20701449D01*
X87286533Y-21401449D02*
X87286533Y-22001449D01*
X87286533Y-22001449D02*
G75*
G02*
X86586533Y-22701449I-700000J0D01*
G01*
X86586533Y-20701449D02*
G75*
G02*
X87286533Y-21401449I0J-700000D01*
G01*
X84486533Y-21401449D02*
G75*
G02*
X85186533Y-20701449I700000J0D01*
G01*
X85186533Y-22701449D02*
G75*
G02*
X84486533Y-22001449I0J700000D01*
G01*
%TO.C,JPSCLF1*%
X86601532Y-25241445D02*
X85201532Y-25241445D01*
X84501532Y-24541445D02*
X84501532Y-23941445D01*
X85201532Y-23241445D02*
X86601532Y-23241445D01*
X87301532Y-23941445D02*
X87301532Y-24541445D01*
X87301532Y-24541445D02*
G75*
G02*
X86601532Y-25241445I-700000J0D01*
G01*
X86601532Y-23241445D02*
G75*
G02*
X87301532Y-23941445I0J-700000D01*
G01*
X84501532Y-23941445D02*
G75*
G02*
X85201532Y-23241445I700000J0D01*
G01*
X85201532Y-25241445D02*
G75*
G02*
X84501532Y-24541445I0J700000D01*
G01*
%TO.C,JPR3F1*%
X86601531Y-40481448D02*
X85201531Y-40481448D01*
X84501531Y-39781448D02*
X84501531Y-39181448D01*
X85201531Y-38481448D02*
X86601531Y-38481448D01*
X87301531Y-39181448D02*
X87301531Y-39781448D01*
X87301531Y-39781448D02*
G75*
G02*
X86601531Y-40481448I-700000J0D01*
G01*
X86601531Y-38481448D02*
G75*
G02*
X87301531Y-39181448I0J-700000D01*
G01*
X84501531Y-39181448D02*
G75*
G02*
X85201531Y-38481448I700000J0D01*
G01*
X85201531Y-40481448D02*
G75*
G02*
X84501531Y-39781448I0J700000D01*
G01*
%TO.C,JPR2F1*%
X86601534Y-37941449D02*
X85201534Y-37941449D01*
X84501534Y-37241449D02*
X84501534Y-36641449D01*
X85201534Y-35941449D02*
X86601534Y-35941449D01*
X87301534Y-36641449D02*
X87301534Y-37241449D01*
X87301534Y-37241449D02*
G75*
G02*
X86601534Y-37941449I-700000J0D01*
G01*
X86601534Y-35941449D02*
G75*
G02*
X87301534Y-36641449I0J-700000D01*
G01*
X84501534Y-36641449D02*
G75*
G02*
X85201534Y-35941449I700000J0D01*
G01*
X85201534Y-37941449D02*
G75*
G02*
X84501534Y-37241449I0J700000D01*
G01*
%TO.C,JPR1F1*%
X86601531Y-35401448D02*
X85201531Y-35401448D01*
X84501531Y-34701448D02*
X84501531Y-34101448D01*
X85201531Y-33401448D02*
X86601531Y-33401448D01*
X87301531Y-34101448D02*
X87301531Y-34701448D01*
X87301531Y-34701448D02*
G75*
G02*
X86601531Y-35401448I-700000J0D01*
G01*
X86601531Y-33401448D02*
G75*
G02*
X87301531Y-34101448I0J-700000D01*
G01*
X84501531Y-34101448D02*
G75*
G02*
X85201531Y-33401448I700000J0D01*
G01*
X85201531Y-35401448D02*
G75*
G02*
X84501531Y-34701448I0J700000D01*
G01*
%TO.C,JPR0F1*%
X86601532Y-32861448D02*
X85201532Y-32861448D01*
X84501532Y-32161448D02*
X84501532Y-31561448D01*
X85201532Y-30861448D02*
X86601532Y-30861448D01*
X87301532Y-31561448D02*
X87301532Y-32161448D01*
X87301532Y-32161448D02*
G75*
G02*
X86601532Y-32861448I-700000J0D01*
G01*
X86601532Y-30861448D02*
G75*
G02*
X87301532Y-31561448I0J-700000D01*
G01*
X84501532Y-31561448D02*
G75*
G02*
X85201532Y-30861448I700000J0D01*
G01*
X85201532Y-32861448D02*
G75*
G02*
X84501532Y-32161448I0J700000D01*
G01*
%TO.C,JPGNDF1*%
X94076531Y-13081450D02*
X95476531Y-13081450D01*
X96176531Y-13781450D02*
X96176531Y-14381450D01*
X95476531Y-15081450D02*
X94076531Y-15081450D01*
X93376531Y-14381450D02*
X93376531Y-13781450D01*
X93376531Y-13781450D02*
G75*
G02*
X94076531Y-13081450I700000J0D01*
G01*
X94076531Y-15081450D02*
G75*
G02*
X93376531Y-14381450I0J700000D01*
G01*
X96176531Y-14381450D02*
G75*
G02*
X95476531Y-15081450I-700000J0D01*
G01*
X95476531Y-13081450D02*
G75*
G02*
X96176531Y-13781450I0J-700000D01*
G01*
%TO.C,JPEBF1*%
X86586534Y-30321450D02*
X85186534Y-30321450D01*
X84486534Y-29621450D02*
X84486534Y-29021450D01*
X85186534Y-28321450D02*
X86586534Y-28321450D01*
X87286534Y-29021450D02*
X87286534Y-29621450D01*
X87286534Y-29621450D02*
G75*
G02*
X86586534Y-30321450I-700000J0D01*
G01*
X86586534Y-28321450D02*
G75*
G02*
X87286534Y-29021450I0J-700000D01*
G01*
X84486534Y-29021450D02*
G75*
G02*
X85186534Y-28321450I700000J0D01*
G01*
X85186534Y-30321450D02*
G75*
G02*
X84486534Y-29621450I0J700000D01*
G01*
%TO.C,JPEAF1*%
X86586536Y-27781451D02*
X85186536Y-27781451D01*
X84486536Y-27081451D02*
X84486536Y-26481451D01*
X85186536Y-25781451D02*
X86586536Y-25781451D01*
X87286536Y-26481451D02*
X87286536Y-27081451D01*
X87286536Y-27081451D02*
G75*
G02*
X86586536Y-27781451I-700000J0D01*
G01*
X86586536Y-25781451D02*
G75*
G02*
X87286536Y-26481451I0J-700000D01*
G01*
X84486536Y-26481451D02*
G75*
G02*
X85186536Y-25781451I700000J0D01*
G01*
X85186536Y-27781451D02*
G75*
G02*
X84486536Y-27081451I0J700000D01*
G01*
%TO.C,JPC5F1*%
X94076532Y-38481446D02*
X95476532Y-38481446D01*
X96176532Y-39181446D02*
X96176532Y-39781446D01*
X95476532Y-40481446D02*
X94076532Y-40481446D01*
X93376532Y-39781446D02*
X93376532Y-39181446D01*
X93376532Y-39181446D02*
G75*
G02*
X94076532Y-38481446I700000J0D01*
G01*
X94076532Y-40481446D02*
G75*
G02*
X93376532Y-39781446I0J700000D01*
G01*
X96176532Y-39781446D02*
G75*
G02*
X95476532Y-40481446I-700000J0D01*
G01*
X95476532Y-38481446D02*
G75*
G02*
X96176532Y-39181446I0J-700000D01*
G01*
%TO.C,JPC4F1*%
X94076532Y-35941449D02*
X95476532Y-35941449D01*
X96176532Y-36641449D02*
X96176532Y-37241449D01*
X95476532Y-37941449D02*
X94076532Y-37941449D01*
X93376532Y-37241449D02*
X93376532Y-36641449D01*
X93376532Y-36641449D02*
G75*
G02*
X94076532Y-35941449I700000J0D01*
G01*
X94076532Y-37941449D02*
G75*
G02*
X93376532Y-37241449I0J700000D01*
G01*
X96176532Y-37241449D02*
G75*
G02*
X95476532Y-37941449I-700000J0D01*
G01*
X95476532Y-35941449D02*
G75*
G02*
X96176532Y-36641449I0J-700000D01*
G01*
%TO.C,JPC3F1*%
X94076532Y-33401446D02*
X95476532Y-33401446D01*
X96176532Y-34101446D02*
X96176532Y-34701446D01*
X95476532Y-35401446D02*
X94076532Y-35401446D01*
X93376532Y-34701446D02*
X93376532Y-34101446D01*
X93376532Y-34101446D02*
G75*
G02*
X94076532Y-33401446I700000J0D01*
G01*
X94076532Y-35401446D02*
G75*
G02*
X93376532Y-34701446I0J700000D01*
G01*
X96176532Y-34701446D02*
G75*
G02*
X95476532Y-35401446I-700000J0D01*
G01*
X95476532Y-33401446D02*
G75*
G02*
X96176532Y-34101446I0J-700000D01*
G01*
%TO.C,JPC2F1*%
X94076533Y-30861450D02*
X95476533Y-30861450D01*
X96176533Y-31561450D02*
X96176533Y-32161450D01*
X95476533Y-32861450D02*
X94076533Y-32861450D01*
X93376533Y-32161450D02*
X93376533Y-31561450D01*
X93376533Y-31561450D02*
G75*
G02*
X94076533Y-30861450I700000J0D01*
G01*
X94076533Y-32861450D02*
G75*
G02*
X93376533Y-32161450I0J700000D01*
G01*
X96176533Y-32161450D02*
G75*
G02*
X95476533Y-32861450I-700000J0D01*
G01*
X95476533Y-30861450D02*
G75*
G02*
X96176533Y-31561450I0J-700000D01*
G01*
%TO.C,JPC1F1*%
X94076534Y-28321450D02*
X95476534Y-28321450D01*
X96176534Y-29021450D02*
X96176534Y-29621450D01*
X95476534Y-30321450D02*
X94076534Y-30321450D01*
X93376534Y-29621450D02*
X93376534Y-29021450D01*
X93376534Y-29021450D02*
G75*
G02*
X94076534Y-28321450I700000J0D01*
G01*
X94076534Y-30321450D02*
G75*
G02*
X93376534Y-29621450I0J700000D01*
G01*
X96176534Y-29621450D02*
G75*
G02*
X95476534Y-30321450I-700000J0D01*
G01*
X95476534Y-28321450D02*
G75*
G02*
X96176534Y-29021450I0J-700000D01*
G01*
%TO.C,JPC0F1*%
X94091533Y-25781449D02*
X95491533Y-25781449D01*
X96191533Y-26481449D02*
X96191533Y-27081449D01*
X95491533Y-27781449D02*
X94091533Y-27781449D01*
X93391533Y-27081449D02*
X93391533Y-26481449D01*
X93391533Y-26481449D02*
G75*
G02*
X94091533Y-25781449I700000J0D01*
G01*
X94091533Y-27781449D02*
G75*
G02*
X93391533Y-27081449I0J700000D01*
G01*
X96191533Y-27081449D02*
G75*
G02*
X95491533Y-27781449I-700000J0D01*
G01*
X95491533Y-25781449D02*
G75*
G02*
X96191533Y-26481449I0J-700000D01*
G01*
%TO.C,JPBF1*%
X94076532Y-10541448D02*
X95476532Y-10541448D01*
X96176532Y-11241448D02*
X96176532Y-11841448D01*
X95476532Y-12541448D02*
X94076532Y-12541448D01*
X93376532Y-11841448D02*
X93376532Y-11241448D01*
X93376532Y-11241448D02*
G75*
G02*
X94076532Y-10541448I700000J0D01*
G01*
X94076532Y-12541448D02*
G75*
G02*
X93376532Y-11841448I0J700000D01*
G01*
X96176532Y-11841448D02*
G75*
G02*
X95476532Y-12541448I-700000J0D01*
G01*
X95476532Y-10541448D02*
G75*
G02*
X96176532Y-11241448I0J-700000D01*
G01*
D11*
%TO.C,D35*%
X99303124Y-72442629D02*
X100332547Y-72459616D01*
X100332547Y-72459616D02*
X99832547Y-73325642D01*
X99832547Y-73325642D02*
X99303124Y-72442629D01*
X99466521Y-71959616D02*
X98966521Y-72825642D01*
X102362803Y-73343110D02*
X97686265Y-70643110D01*
X97686265Y-70643110D02*
X96936265Y-71942148D01*
X96936265Y-71942148D02*
X101612803Y-74642148D01*
X101612803Y-74642148D02*
X102362803Y-73343110D01*
%TO.C,D34*%
X82849921Y-62943368D02*
X83879344Y-62960355D01*
X83879344Y-62960355D02*
X83379344Y-63826381D01*
X83379344Y-63826381D02*
X82849921Y-62943368D01*
X83013318Y-62460355D02*
X82513318Y-63326381D01*
X85909600Y-63843849D02*
X81233062Y-61143849D01*
X81233062Y-61143849D02*
X80483062Y-62442887D01*
X80483062Y-62442887D02*
X85159600Y-65142887D01*
X85159600Y-65142887D02*
X85909600Y-63843849D01*
%TO.C,D33*%
X57094452Y-57056256D02*
X56095710Y-57306281D01*
X56095710Y-57306281D02*
X56354529Y-56340356D01*
X56354529Y-56340356D02*
X57094452Y-57056256D01*
X57061635Y-57565100D02*
X57320454Y-56599175D01*
X53905968Y-56978361D02*
X59121967Y-58375984D01*
X59121967Y-58375984D02*
X59510196Y-56927095D01*
X59510196Y-56927095D02*
X54294197Y-55529472D01*
X54294197Y-55529472D02*
X53905968Y-56978361D01*
%TO.C,D32*%
X29571534Y-50956449D02*
X28671534Y-51456449D01*
X28671534Y-51456449D02*
X28671534Y-50456449D01*
X28671534Y-50456449D02*
X29571534Y-50956449D01*
X29671534Y-51456449D02*
X29671534Y-50456449D01*
X26471534Y-51706449D02*
X31871534Y-51706449D01*
X31871534Y-51706449D02*
X31871534Y-50206449D01*
X31871534Y-50206449D02*
X26471534Y-50206449D01*
X26471534Y-50206449D02*
X26471534Y-51706449D01*
%TO.C,D25*%
X67671534Y-36351450D02*
X66771534Y-36851450D01*
X66771534Y-36851450D02*
X66771534Y-35851450D01*
X66771534Y-35851450D02*
X67671534Y-36351450D01*
X67771534Y-36851450D02*
X67771534Y-35851450D01*
X64571534Y-37101450D02*
X69971534Y-37101450D01*
X69971534Y-37101450D02*
X69971534Y-35601450D01*
X69971534Y-35601450D02*
X64571534Y-35601450D01*
X64571534Y-35601450D02*
X64571534Y-37101450D01*
%TO.C,D24*%
X48621532Y-34446448D02*
X47721532Y-34946448D01*
X47721532Y-34946448D02*
X47721532Y-33946448D01*
X47721532Y-33946448D02*
X48621532Y-34446448D01*
X48721532Y-34946448D02*
X48721532Y-33946448D01*
X45521532Y-35196448D02*
X50921532Y-35196448D01*
X50921532Y-35196448D02*
X50921532Y-33696448D01*
X50921532Y-33696448D02*
X45521532Y-33696448D01*
X45521532Y-33696448D02*
X45521532Y-35196448D01*
%TO.C,D23*%
X29571535Y-31906451D02*
X28671535Y-32406451D01*
X28671535Y-32406451D02*
X28671535Y-31406451D01*
X28671535Y-31406451D02*
X29571535Y-31906451D01*
X29671535Y-32406451D02*
X29671535Y-31406451D01*
X26471535Y-32656451D02*
X31871535Y-32656451D01*
X31871535Y-32656451D02*
X31871535Y-31156451D01*
X31871535Y-31156451D02*
X26471535Y-31156451D01*
X26471535Y-31156451D02*
X26471535Y-32656451D01*
%TO.C,D22*%
X10521534Y-34446447D02*
X9621534Y-34946447D01*
X9621534Y-34946447D02*
X9621534Y-33946447D01*
X9621534Y-33946447D02*
X10521534Y-34446447D01*
X10621534Y-34946447D02*
X10621534Y-33946447D01*
X7421534Y-35196447D02*
X12821534Y-35196447D01*
X12821534Y-35196447D02*
X12821534Y-33696447D01*
X12821534Y-33696447D02*
X7421534Y-33696447D01*
X7421534Y-33696447D02*
X7421534Y-35196447D01*
%TO.C,D21*%
X-8528469Y-38891448D02*
X-9428469Y-39391448D01*
X-9428469Y-39391448D02*
X-9428469Y-38391448D01*
X-9428469Y-38391448D02*
X-8528469Y-38891448D01*
X-8428469Y-39391448D02*
X-8428469Y-38391448D01*
X-11628469Y-39641448D02*
X-6228469Y-39641448D01*
X-6228469Y-39641448D02*
X-6228469Y-38141448D01*
X-6228469Y-38141448D02*
X-11628469Y-38141448D01*
X-11628469Y-38141448D02*
X-11628469Y-39641448D01*
%TO.C,D20*%
X-27578468Y-38891447D02*
X-28478468Y-39391447D01*
X-28478468Y-39391447D02*
X-28478468Y-38391447D01*
X-28478468Y-38391447D02*
X-27578468Y-38891447D01*
X-27478468Y-39391447D02*
X-27478468Y-38391447D01*
X-30678468Y-39641447D02*
X-25278468Y-39641447D01*
X-25278468Y-39641447D02*
X-25278468Y-38141447D01*
X-25278468Y-38141447D02*
X-30678468Y-38141447D01*
X-30678468Y-38141447D02*
X-30678468Y-39641447D01*
%TO.C,D15*%
X67671534Y-33811446D02*
X66771534Y-34311446D01*
X66771534Y-34311446D02*
X66771534Y-33311446D01*
X66771534Y-33311446D02*
X67671534Y-33811446D01*
X67771534Y-34311446D02*
X67771534Y-33311446D01*
X64571534Y-34561446D02*
X69971534Y-34561446D01*
X69971534Y-34561446D02*
X69971534Y-33061446D01*
X69971534Y-33061446D02*
X64571534Y-33061446D01*
X64571534Y-33061446D02*
X64571534Y-34561446D01*
%TO.C,D14*%
X48621534Y-31906448D02*
X47721534Y-32406448D01*
X47721534Y-32406448D02*
X47721534Y-31406448D01*
X47721534Y-31406448D02*
X48621534Y-31906448D01*
X48721534Y-32406448D02*
X48721534Y-31406448D01*
X45521534Y-32656448D02*
X50921534Y-32656448D01*
X50921534Y-32656448D02*
X50921534Y-31156448D01*
X50921534Y-31156448D02*
X45521534Y-31156448D01*
X45521534Y-31156448D02*
X45521534Y-32656448D01*
%TO.C,D13*%
X29571535Y-29366447D02*
X28671535Y-29866447D01*
X28671535Y-29866447D02*
X28671535Y-28866447D01*
X28671535Y-28866447D02*
X29571535Y-29366447D01*
X29671535Y-29866447D02*
X29671535Y-28866447D01*
X26471535Y-30116447D02*
X31871535Y-30116447D01*
X31871535Y-30116447D02*
X31871535Y-28616447D01*
X31871535Y-28616447D02*
X26471535Y-28616447D01*
X26471535Y-28616447D02*
X26471535Y-30116447D01*
%TO.C,D12*%
X10521534Y-31906449D02*
X9621534Y-32406449D01*
X9621534Y-32406449D02*
X9621534Y-31406449D01*
X9621534Y-31406449D02*
X10521534Y-31906449D01*
X10621534Y-32406449D02*
X10621534Y-31406449D01*
X7421534Y-32656449D02*
X12821534Y-32656449D01*
X12821534Y-32656449D02*
X12821534Y-31156449D01*
X12821534Y-31156449D02*
X7421534Y-31156449D01*
X7421534Y-31156449D02*
X7421534Y-32656449D01*
%TO.C,D11*%
X-8528469Y-36351444D02*
X-9428469Y-36851444D01*
X-9428469Y-36851444D02*
X-9428469Y-35851444D01*
X-9428469Y-35851444D02*
X-8528469Y-36351444D01*
X-8428469Y-36851444D02*
X-8428469Y-35851444D01*
X-11628469Y-37101444D02*
X-6228469Y-37101444D01*
X-6228469Y-37101444D02*
X-6228469Y-35601444D01*
X-6228469Y-35601444D02*
X-11628469Y-35601444D01*
X-11628469Y-35601444D02*
X-11628469Y-37101444D01*
%TO.C,D10*%
X-27578468Y-36351448D02*
X-28478468Y-36851448D01*
X-28478468Y-36851448D02*
X-28478468Y-35851448D01*
X-28478468Y-35851448D02*
X-27578468Y-36351448D01*
X-27478468Y-36851448D02*
X-27478468Y-35851448D01*
X-30678468Y-37101448D02*
X-25278468Y-37101448D01*
X-25278468Y-37101448D02*
X-25278468Y-35601448D01*
X-25278468Y-35601448D02*
X-30678468Y-35601448D01*
X-30678468Y-35601448D02*
X-30678468Y-37101448D01*
%TO.C,D5*%
X67671533Y-14761449D02*
X66771533Y-15261449D01*
X66771533Y-15261449D02*
X66771533Y-14261449D01*
X66771533Y-14261449D02*
X67671533Y-14761449D01*
X67771533Y-15261449D02*
X67771533Y-14261449D01*
X64571533Y-15511449D02*
X69971533Y-15511449D01*
X69971533Y-15511449D02*
X69971533Y-14011449D01*
X69971533Y-14011449D02*
X64571533Y-14011449D01*
X64571533Y-14011449D02*
X64571533Y-15511449D01*
%TO.C,D4*%
X48621533Y-12856447D02*
X47721533Y-13356447D01*
X47721533Y-13356447D02*
X47721533Y-12356447D01*
X47721533Y-12356447D02*
X48621533Y-12856447D01*
X48721533Y-13356447D02*
X48721533Y-12356447D01*
X45521533Y-13606447D02*
X50921533Y-13606447D01*
X50921533Y-13606447D02*
X50921533Y-12106447D01*
X50921533Y-12106447D02*
X45521533Y-12106447D01*
X45521533Y-12106447D02*
X45521533Y-13606447D01*
%TO.C,D3*%
X29571531Y-10316447D02*
X28671531Y-10816447D01*
X28671531Y-10816447D02*
X28671531Y-9816447D01*
X28671531Y-9816447D02*
X29571531Y-10316447D01*
X29671531Y-10816447D02*
X29671531Y-9816447D01*
X26471531Y-11066447D02*
X31871531Y-11066447D01*
X31871531Y-11066447D02*
X31871531Y-9566447D01*
X31871531Y-9566447D02*
X26471531Y-9566447D01*
X26471531Y-9566447D02*
X26471531Y-11066447D01*
%TO.C,D2*%
X10521533Y-12856448D02*
X9621533Y-13356448D01*
X9621533Y-13356448D02*
X9621533Y-12356448D01*
X9621533Y-12356448D02*
X10521533Y-12856448D01*
X10621533Y-13356448D02*
X10621533Y-12356448D01*
X7421533Y-13606448D02*
X12821533Y-13606448D01*
X12821533Y-13606448D02*
X12821533Y-12106448D01*
X12821533Y-12106448D02*
X7421533Y-12106448D01*
X7421533Y-12106448D02*
X7421533Y-13606448D01*
%TO.C,D1*%
X-8528468Y-17301447D02*
X-9428468Y-17801447D01*
X-9428468Y-17801447D02*
X-9428468Y-16801447D01*
X-9428468Y-16801447D02*
X-8528468Y-17301447D01*
X-8428468Y-17801447D02*
X-8428468Y-16801447D01*
X-11628468Y-18051447D02*
X-6228468Y-18051447D01*
X-6228468Y-18051447D02*
X-6228468Y-16551447D01*
X-6228468Y-16551447D02*
X-11628468Y-16551447D01*
X-11628468Y-16551447D02*
X-11628468Y-18051447D01*
%TO.C,D0*%
X-27578465Y-17301451D02*
X-28478465Y-17801451D01*
X-28478465Y-17801451D02*
X-28478465Y-16801451D01*
X-28478465Y-16801451D02*
X-27578465Y-17301451D01*
X-27478465Y-17801451D02*
X-27478465Y-16801451D01*
X-30678465Y-18051451D02*
X-25278465Y-18051451D01*
X-25278465Y-18051451D02*
X-25278465Y-16551451D01*
X-25278465Y-16551451D02*
X-30678465Y-16551451D01*
X-30678465Y-16551451D02*
X-30678465Y-18051451D01*
%TO.C,U0*%
X91337199Y-29683354D02*
X90880056Y-29683354D01*
X91108628Y-29683354D02*
X91108628Y-28883354D01*
X91032437Y-28997640D01*
X90956247Y-29073830D01*
X90880056Y-29111926D01*
X92099104Y-29683354D02*
X91641961Y-29683354D01*
X91870533Y-29683354D02*
X91870533Y-28883354D01*
X91794342Y-28997640D01*
X91718152Y-29073830D01*
X91641961Y-29111926D01*
X92822913Y-28883354D02*
X92441961Y-28883354D01*
X92403866Y-29264307D01*
X92441961Y-29226211D01*
X92518152Y-29188116D01*
X92708628Y-29188116D01*
X92784818Y-29226211D01*
X92822913Y-29264307D01*
X92861009Y-29340497D01*
X92861009Y-29530973D01*
X92822913Y-29607164D01*
X92784818Y-29645259D01*
X92708628Y-29683354D01*
X92518152Y-29683354D01*
X92441961Y-29645259D01*
X92403866Y-29607164D01*
X91318152Y-11903354D02*
X91051485Y-11522402D01*
X90861009Y-11903354D02*
X90861009Y-11103354D01*
X91165771Y-11103354D01*
X91241961Y-11141450D01*
X91280056Y-11179545D01*
X91318152Y-11255735D01*
X91318152Y-11370021D01*
X91280056Y-11446211D01*
X91241961Y-11484307D01*
X91165771Y-11522402D01*
X90861009Y-11522402D01*
X91622913Y-11674783D02*
X92003866Y-11674783D01*
X91546723Y-11903354D02*
X91813390Y-11103354D01*
X92080056Y-11903354D01*
X92270533Y-11103354D02*
X92461009Y-11903354D01*
X92613390Y-11331926D01*
X92765771Y-11903354D01*
X92956247Y-11103354D01*
X91261009Y-13681450D02*
X91184818Y-13643354D01*
X91070533Y-13643354D01*
X90956247Y-13681450D01*
X90880056Y-13757640D01*
X90841961Y-13833830D01*
X90803866Y-13986211D01*
X90803866Y-14100497D01*
X90841961Y-14252878D01*
X90880056Y-14329069D01*
X90956247Y-14405259D01*
X91070533Y-14443354D01*
X91146723Y-14443354D01*
X91261009Y-14405259D01*
X91299104Y-14367164D01*
X91299104Y-14100497D01*
X91146723Y-14100497D01*
X91641961Y-14443354D02*
X91641961Y-13643354D01*
X92099104Y-14443354D01*
X92099104Y-13643354D01*
X92480056Y-14443354D02*
X92480056Y-13643354D01*
X92670533Y-13643354D01*
X92784818Y-13681450D01*
X92861009Y-13757640D01*
X92899104Y-13833830D01*
X92937199Y-13986211D01*
X92937199Y-14100497D01*
X92899104Y-14252878D01*
X92861009Y-14329069D01*
X92784818Y-14405259D01*
X92670533Y-14443354D01*
X92480056Y-14443354D01*
X91432437Y-16983354D02*
X91165771Y-16602402D01*
X90975294Y-16983354D02*
X90975294Y-16183354D01*
X91280056Y-16183354D01*
X91356247Y-16221450D01*
X91394342Y-16259545D01*
X91432437Y-16335735D01*
X91432437Y-16450021D01*
X91394342Y-16526211D01*
X91356247Y-16564307D01*
X91280056Y-16602402D01*
X90975294Y-16602402D01*
X91737199Y-16945259D02*
X91851485Y-16983354D01*
X92041961Y-16983354D01*
X92118152Y-16945259D01*
X92156247Y-16907164D01*
X92194342Y-16830973D01*
X92194342Y-16754783D01*
X92156247Y-16678592D01*
X92118152Y-16640497D01*
X92041961Y-16602402D01*
X91889580Y-16564307D01*
X91813390Y-16526211D01*
X91775294Y-16488116D01*
X91737199Y-16411926D01*
X91737199Y-16335735D01*
X91775294Y-16259545D01*
X91813390Y-16221450D01*
X91889580Y-16183354D01*
X92080056Y-16183354D01*
X92194342Y-16221450D01*
X92422913Y-16183354D02*
X92880056Y-16183354D01*
X92651485Y-16983354D02*
X92651485Y-16183354D01*
X90803866Y-18723354D02*
X91070533Y-19523354D01*
X91337199Y-18723354D01*
X92061009Y-19447164D02*
X92022913Y-19485259D01*
X91908628Y-19523354D01*
X91832437Y-19523354D01*
X91718152Y-19485259D01*
X91641961Y-19409069D01*
X91603866Y-19332878D01*
X91565771Y-19180497D01*
X91565771Y-19066211D01*
X91603866Y-18913830D01*
X91641961Y-18837640D01*
X91718152Y-18761450D01*
X91832437Y-18723354D01*
X91908628Y-18723354D01*
X92022913Y-18761450D01*
X92061009Y-18799545D01*
X92861009Y-19447164D02*
X92822913Y-19485259D01*
X92708628Y-19523354D01*
X92632437Y-19523354D01*
X92518152Y-19485259D01*
X92441961Y-19409069D01*
X92403866Y-19332878D01*
X92365771Y-19180497D01*
X92365771Y-19066211D01*
X92403866Y-18913830D01*
X92441961Y-18837640D01*
X92518152Y-18761450D01*
X92632437Y-18723354D01*
X92708628Y-18723354D01*
X92822913Y-18761450D01*
X92861009Y-18799545D01*
X91070533Y-23803354D02*
X91146723Y-23803354D01*
X91222913Y-23841450D01*
X91261009Y-23879545D01*
X91299104Y-23955735D01*
X91337199Y-24108116D01*
X91337199Y-24298592D01*
X91299104Y-24450973D01*
X91261009Y-24527164D01*
X91222913Y-24565259D01*
X91146723Y-24603354D01*
X91070533Y-24603354D01*
X90994342Y-24565259D01*
X90956247Y-24527164D01*
X90918152Y-24450973D01*
X90880056Y-24298592D01*
X90880056Y-24108116D01*
X90918152Y-23955735D01*
X90956247Y-23879545D01*
X90994342Y-23841450D01*
X91070533Y-23803354D01*
X91641961Y-23879545D02*
X91680056Y-23841450D01*
X91756247Y-23803354D01*
X91946723Y-23803354D01*
X92022913Y-23841450D01*
X92061009Y-23879545D01*
X92099104Y-23955735D01*
X92099104Y-24031926D01*
X92061009Y-24146211D01*
X91603866Y-24603354D01*
X92099104Y-24603354D01*
X92480056Y-24603354D02*
X92632437Y-24603354D01*
X92708628Y-24565259D01*
X92746723Y-24527164D01*
X92822913Y-24412878D01*
X92861009Y-24260497D01*
X92861009Y-23955735D01*
X92822913Y-23879545D01*
X92784818Y-23841450D01*
X92708628Y-23803354D01*
X92556247Y-23803354D01*
X92480056Y-23841450D01*
X92441961Y-23879545D01*
X92403866Y-23955735D01*
X92403866Y-24146211D01*
X92441961Y-24222402D01*
X92480056Y-24260497D01*
X92556247Y-24298592D01*
X92708628Y-24298592D01*
X92784818Y-24260497D01*
X92822913Y-24222402D01*
X92861009Y-24146211D01*
X91070533Y-36503354D02*
X91146723Y-36503354D01*
X91222913Y-36541450D01*
X91261009Y-36579545D01*
X91299104Y-36655735D01*
X91337199Y-36808116D01*
X91337199Y-36998592D01*
X91299104Y-37150973D01*
X91261009Y-37227164D01*
X91222913Y-37265259D01*
X91146723Y-37303354D01*
X91070533Y-37303354D01*
X90994342Y-37265259D01*
X90956247Y-37227164D01*
X90918152Y-37150973D01*
X90880056Y-36998592D01*
X90880056Y-36808116D01*
X90918152Y-36655735D01*
X90956247Y-36579545D01*
X90994342Y-36541450D01*
X91070533Y-36503354D01*
X92099104Y-37303354D02*
X91641961Y-37303354D01*
X91870533Y-37303354D02*
X91870533Y-36503354D01*
X91794342Y-36617640D01*
X91718152Y-36693830D01*
X91641961Y-36731926D01*
X92594342Y-36503354D02*
X92670533Y-36503354D01*
X92746723Y-36541450D01*
X92784818Y-36579545D01*
X92822913Y-36655735D01*
X92861009Y-36808116D01*
X92861009Y-36998592D01*
X92822913Y-37150973D01*
X92784818Y-37227164D01*
X92746723Y-37265259D01*
X92670533Y-37303354D01*
X92594342Y-37303354D01*
X92518152Y-37265259D01*
X92480056Y-37227164D01*
X92441961Y-37150973D01*
X92403866Y-36998592D01*
X92403866Y-36808116D01*
X92441961Y-36655735D01*
X92480056Y-36579545D01*
X92518152Y-36541450D01*
X92594342Y-36503354D01*
X91070533Y-21263354D02*
X91146723Y-21263354D01*
X91222913Y-21301450D01*
X91261009Y-21339545D01*
X91299104Y-21415735D01*
X91337199Y-21568116D01*
X91337199Y-21758592D01*
X91299104Y-21910973D01*
X91261009Y-21987164D01*
X91222913Y-22025259D01*
X91146723Y-22063354D01*
X91070533Y-22063354D01*
X90994342Y-22025259D01*
X90956247Y-21987164D01*
X90918152Y-21910973D01*
X90880056Y-21758592D01*
X90880056Y-21568116D01*
X90918152Y-21415735D01*
X90956247Y-21339545D01*
X90994342Y-21301450D01*
X91070533Y-21263354D01*
X91603866Y-21263354D02*
X92099104Y-21263354D01*
X91832437Y-21568116D01*
X91946723Y-21568116D01*
X92022913Y-21606211D01*
X92061009Y-21644307D01*
X92099104Y-21720497D01*
X92099104Y-21910973D01*
X92061009Y-21987164D01*
X92022913Y-22025259D01*
X91946723Y-22063354D01*
X91718152Y-22063354D01*
X91641961Y-22025259D01*
X91603866Y-21987164D01*
X92861009Y-22063354D02*
X92403866Y-22063354D01*
X92632437Y-22063354D02*
X92632437Y-21263354D01*
X92556247Y-21377640D01*
X92480056Y-21453830D01*
X92403866Y-21491926D01*
X91070533Y-39043354D02*
X91146723Y-39043354D01*
X91222913Y-39081450D01*
X91261009Y-39119545D01*
X91299104Y-39195735D01*
X91337199Y-39348116D01*
X91337199Y-39538592D01*
X91299104Y-39690973D01*
X91261009Y-39767164D01*
X91222913Y-39805259D01*
X91146723Y-39843354D01*
X91070533Y-39843354D01*
X90994342Y-39805259D01*
X90956247Y-39767164D01*
X90918152Y-39690973D01*
X90880056Y-39538592D01*
X90880056Y-39348116D01*
X90918152Y-39195735D01*
X90956247Y-39119545D01*
X90994342Y-39081450D01*
X91070533Y-39043354D01*
X91832437Y-39043354D02*
X91908628Y-39043354D01*
X91984818Y-39081450D01*
X92022913Y-39119545D01*
X92061009Y-39195735D01*
X92099104Y-39348116D01*
X92099104Y-39538592D01*
X92061009Y-39690973D01*
X92022913Y-39767164D01*
X91984818Y-39805259D01*
X91908628Y-39843354D01*
X91832437Y-39843354D01*
X91756247Y-39805259D01*
X91718152Y-39767164D01*
X91680056Y-39690973D01*
X91641961Y-39538592D01*
X91641961Y-39348116D01*
X91680056Y-39195735D01*
X91718152Y-39119545D01*
X91756247Y-39081450D01*
X91832437Y-39043354D01*
X92480056Y-39843354D02*
X92632437Y-39843354D01*
X92708628Y-39805259D01*
X92746723Y-39767164D01*
X92822913Y-39652878D01*
X92861009Y-39500497D01*
X92861009Y-39195735D01*
X92822913Y-39119545D01*
X92784818Y-39081450D01*
X92708628Y-39043354D01*
X92556247Y-39043354D01*
X92480056Y-39081450D01*
X92441961Y-39119545D01*
X92403866Y-39195735D01*
X92403866Y-39386211D01*
X92441961Y-39462402D01*
X92480056Y-39500497D01*
X92556247Y-39538592D01*
X92708628Y-39538592D01*
X92784818Y-39500497D01*
X92822913Y-39462402D01*
X92861009Y-39386211D01*
X91337199Y-34763354D02*
X90880056Y-34763354D01*
X91108628Y-34763354D02*
X91108628Y-33963354D01*
X91032437Y-34077640D01*
X90956247Y-34153830D01*
X90880056Y-34191926D01*
X92099104Y-34763354D02*
X91641961Y-34763354D01*
X91870533Y-34763354D02*
X91870533Y-33963354D01*
X91794342Y-34077640D01*
X91718152Y-34153830D01*
X91641961Y-34191926D01*
X92861009Y-34763354D02*
X92403866Y-34763354D01*
X92632437Y-34763354D02*
X92632437Y-33963354D01*
X92556247Y-34077640D01*
X92480056Y-34153830D01*
X92403866Y-34191926D01*
X91070533Y-26343354D02*
X91146723Y-26343354D01*
X91222913Y-26381450D01*
X91261009Y-26419545D01*
X91299104Y-26495735D01*
X91337199Y-26648116D01*
X91337199Y-26838592D01*
X91299104Y-26990973D01*
X91261009Y-27067164D01*
X91222913Y-27105259D01*
X91146723Y-27143354D01*
X91070533Y-27143354D01*
X90994342Y-27105259D01*
X90956247Y-27067164D01*
X90918152Y-26990973D01*
X90880056Y-26838592D01*
X90880056Y-26648116D01*
X90918152Y-26495735D01*
X90956247Y-26419545D01*
X90994342Y-26381450D01*
X91070533Y-26343354D01*
X91832437Y-26343354D02*
X91908628Y-26343354D01*
X91984818Y-26381450D01*
X92022913Y-26419545D01*
X92061009Y-26495735D01*
X92099104Y-26648116D01*
X92099104Y-26838592D01*
X92061009Y-26990973D01*
X92022913Y-27067164D01*
X91984818Y-27105259D01*
X91908628Y-27143354D01*
X91832437Y-27143354D01*
X91756247Y-27105259D01*
X91718152Y-27067164D01*
X91680056Y-26990973D01*
X91641961Y-26838592D01*
X91641961Y-26648116D01*
X91680056Y-26495735D01*
X91718152Y-26419545D01*
X91756247Y-26381450D01*
X91832437Y-26343354D01*
X92403866Y-26419545D02*
X92441961Y-26381450D01*
X92518152Y-26343354D01*
X92708628Y-26343354D01*
X92784818Y-26381450D01*
X92822913Y-26419545D01*
X92861009Y-26495735D01*
X92861009Y-26571926D01*
X92822913Y-26686211D01*
X92365771Y-27143354D01*
X92861009Y-27143354D01*
X91337199Y-32223354D02*
X90880056Y-32223354D01*
X91108628Y-32223354D02*
X91108628Y-31423354D01*
X91032437Y-31537640D01*
X90956247Y-31613830D01*
X90880056Y-31651926D01*
X92099104Y-32223354D02*
X91641961Y-32223354D01*
X91870533Y-32223354D02*
X91870533Y-31423354D01*
X91794342Y-31537640D01*
X91718152Y-31613830D01*
X91641961Y-31651926D01*
X92365771Y-31423354D02*
X92861009Y-31423354D01*
X92594342Y-31728116D01*
X92708628Y-31728116D01*
X92784818Y-31766211D01*
X92822913Y-31804307D01*
X92861009Y-31880497D01*
X92861009Y-32070973D01*
X92822913Y-32147164D01*
X92784818Y-32185259D01*
X92708628Y-32223354D01*
X92480056Y-32223354D01*
X92403866Y-32185259D01*
X92365771Y-32147164D01*
X88022533Y-28883354D02*
X88098723Y-28883354D01*
X88174913Y-28921450D01*
X88213009Y-28959545D01*
X88251104Y-29035735D01*
X88289199Y-29188116D01*
X88289199Y-29378592D01*
X88251104Y-29530973D01*
X88213009Y-29607164D01*
X88174913Y-29645259D01*
X88098723Y-29683354D01*
X88022533Y-29683354D01*
X87946342Y-29645259D01*
X87908247Y-29607164D01*
X87870152Y-29530973D01*
X87832056Y-29378592D01*
X87832056Y-29188116D01*
X87870152Y-29035735D01*
X87908247Y-28959545D01*
X87946342Y-28921450D01*
X88022533Y-28883354D01*
X88593961Y-28959545D02*
X88632056Y-28921450D01*
X88708247Y-28883354D01*
X88898723Y-28883354D01*
X88974913Y-28921450D01*
X89013009Y-28959545D01*
X89051104Y-29035735D01*
X89051104Y-29111926D01*
X89013009Y-29226211D01*
X88555866Y-29683354D01*
X89051104Y-29683354D01*
X89736818Y-29150021D02*
X89736818Y-29683354D01*
X89546342Y-28845259D02*
X89355866Y-29416688D01*
X89851104Y-29416688D01*
X88289199Y-32223354D02*
X87832056Y-32223354D01*
X88060628Y-32223354D02*
X88060628Y-31423354D01*
X87984437Y-31537640D01*
X87908247Y-31613830D01*
X87832056Y-31651926D01*
X88784437Y-31423354D02*
X88860628Y-31423354D01*
X88936818Y-31461450D01*
X88974913Y-31499545D01*
X89013009Y-31575735D01*
X89051104Y-31728116D01*
X89051104Y-31918592D01*
X89013009Y-32070973D01*
X88974913Y-32147164D01*
X88936818Y-32185259D01*
X88860628Y-32223354D01*
X88784437Y-32223354D01*
X88708247Y-32185259D01*
X88670152Y-32147164D01*
X88632056Y-32070973D01*
X88593961Y-31918592D01*
X88593961Y-31728116D01*
X88632056Y-31575735D01*
X88670152Y-31499545D01*
X88708247Y-31461450D01*
X88784437Y-31423354D01*
X89546342Y-31423354D02*
X89622533Y-31423354D01*
X89698723Y-31461450D01*
X89736818Y-31499545D01*
X89774913Y-31575735D01*
X89813009Y-31728116D01*
X89813009Y-31918592D01*
X89774913Y-32070973D01*
X89736818Y-32147164D01*
X89698723Y-32185259D01*
X89622533Y-32223354D01*
X89546342Y-32223354D01*
X89470152Y-32185259D01*
X89432056Y-32147164D01*
X89393961Y-32070973D01*
X89355866Y-31918592D01*
X89355866Y-31728116D01*
X89393961Y-31575735D01*
X89432056Y-31499545D01*
X89470152Y-31461450D01*
X89546342Y-31423354D01*
X88289199Y-37303354D02*
X87832056Y-37303354D01*
X88060628Y-37303354D02*
X88060628Y-36503354D01*
X87984437Y-36617640D01*
X87908247Y-36693830D01*
X87832056Y-36731926D01*
X88784437Y-36503354D02*
X88860628Y-36503354D01*
X88936818Y-36541450D01*
X88974913Y-36579545D01*
X89013009Y-36655735D01*
X89051104Y-36808116D01*
X89051104Y-36998592D01*
X89013009Y-37150973D01*
X88974913Y-37227164D01*
X88936818Y-37265259D01*
X88860628Y-37303354D01*
X88784437Y-37303354D01*
X88708247Y-37265259D01*
X88670152Y-37227164D01*
X88632056Y-37150973D01*
X88593961Y-36998592D01*
X88593961Y-36808116D01*
X88632056Y-36655735D01*
X88670152Y-36579545D01*
X88708247Y-36541450D01*
X88784437Y-36503354D01*
X89736818Y-36770021D02*
X89736818Y-37303354D01*
X89546342Y-36465259D02*
X89355866Y-37036688D01*
X89851104Y-37036688D01*
X88289199Y-39843354D02*
X87832056Y-39843354D01*
X88060628Y-39843354D02*
X88060628Y-39043354D01*
X87984437Y-39157640D01*
X87908247Y-39233830D01*
X87832056Y-39271926D01*
X88784437Y-39043354D02*
X88860628Y-39043354D01*
X88936818Y-39081450D01*
X88974913Y-39119545D01*
X89013009Y-39195735D01*
X89051104Y-39348116D01*
X89051104Y-39538592D01*
X89013009Y-39690973D01*
X88974913Y-39767164D01*
X88936818Y-39805259D01*
X88860628Y-39843354D01*
X88784437Y-39843354D01*
X88708247Y-39805259D01*
X88670152Y-39767164D01*
X88632056Y-39690973D01*
X88593961Y-39538592D01*
X88593961Y-39348116D01*
X88632056Y-39195735D01*
X88670152Y-39119545D01*
X88708247Y-39081450D01*
X88784437Y-39043354D01*
X89736818Y-39043354D02*
X89584437Y-39043354D01*
X89508247Y-39081450D01*
X89470152Y-39119545D01*
X89393961Y-39233830D01*
X89355866Y-39386211D01*
X89355866Y-39690973D01*
X89393961Y-39767164D01*
X89432056Y-39805259D01*
X89508247Y-39843354D01*
X89660628Y-39843354D01*
X89736818Y-39805259D01*
X89774913Y-39767164D01*
X89813009Y-39690973D01*
X89813009Y-39500497D01*
X89774913Y-39424307D01*
X89736818Y-39386211D01*
X89660628Y-39348116D01*
X89508247Y-39348116D01*
X89432056Y-39386211D01*
X89393961Y-39424307D01*
X89355866Y-39500497D01*
X88022533Y-33963354D02*
X88098723Y-33963354D01*
X88174913Y-34001450D01*
X88213009Y-34039545D01*
X88251104Y-34115735D01*
X88289199Y-34268116D01*
X88289199Y-34458592D01*
X88251104Y-34610973D01*
X88213009Y-34687164D01*
X88174913Y-34725259D01*
X88098723Y-34763354D01*
X88022533Y-34763354D01*
X87946342Y-34725259D01*
X87908247Y-34687164D01*
X87870152Y-34610973D01*
X87832056Y-34458592D01*
X87832056Y-34268116D01*
X87870152Y-34115735D01*
X87908247Y-34039545D01*
X87946342Y-34001450D01*
X88022533Y-33963354D01*
X89051104Y-34763354D02*
X88593961Y-34763354D01*
X88822533Y-34763354D02*
X88822533Y-33963354D01*
X88746342Y-34077640D01*
X88670152Y-34153830D01*
X88593961Y-34191926D01*
X89813009Y-34763354D02*
X89355866Y-34763354D01*
X89584437Y-34763354D02*
X89584437Y-33963354D01*
X89508247Y-34077640D01*
X89432056Y-34153830D01*
X89355866Y-34191926D01*
X88022533Y-26343354D02*
X88098723Y-26343354D01*
X88174913Y-26381450D01*
X88213009Y-26419545D01*
X88251104Y-26495735D01*
X88289199Y-26648116D01*
X88289199Y-26838592D01*
X88251104Y-26990973D01*
X88213009Y-27067164D01*
X88174913Y-27105259D01*
X88098723Y-27143354D01*
X88022533Y-27143354D01*
X87946342Y-27105259D01*
X87908247Y-27067164D01*
X87870152Y-26990973D01*
X87832056Y-26838592D01*
X87832056Y-26648116D01*
X87870152Y-26495735D01*
X87908247Y-26419545D01*
X87946342Y-26381450D01*
X88022533Y-26343354D01*
X88593961Y-26419545D02*
X88632056Y-26381450D01*
X88708247Y-26343354D01*
X88898723Y-26343354D01*
X88974913Y-26381450D01*
X89013009Y-26419545D01*
X89051104Y-26495735D01*
X89051104Y-26571926D01*
X89013009Y-26686211D01*
X88555866Y-27143354D01*
X89051104Y-27143354D01*
X89355866Y-26419545D02*
X89393961Y-26381450D01*
X89470152Y-26343354D01*
X89660628Y-26343354D01*
X89736818Y-26381450D01*
X89774913Y-26419545D01*
X89813009Y-26495735D01*
X89813009Y-26571926D01*
X89774913Y-26686211D01*
X89317771Y-27143354D01*
X89813009Y-27143354D01*
X88022533Y-21263354D02*
X88098723Y-21263354D01*
X88174913Y-21301450D01*
X88213009Y-21339545D01*
X88251104Y-21415735D01*
X88289199Y-21568116D01*
X88289199Y-21758592D01*
X88251104Y-21910973D01*
X88213009Y-21987164D01*
X88174913Y-22025259D01*
X88098723Y-22063354D01*
X88022533Y-22063354D01*
X87946342Y-22025259D01*
X87908247Y-21987164D01*
X87870152Y-21910973D01*
X87832056Y-21758592D01*
X87832056Y-21568116D01*
X87870152Y-21415735D01*
X87908247Y-21339545D01*
X87946342Y-21301450D01*
X88022533Y-21263354D01*
X89051104Y-22063354D02*
X88593961Y-22063354D01*
X88822533Y-22063354D02*
X88822533Y-21263354D01*
X88746342Y-21377640D01*
X88670152Y-21453830D01*
X88593961Y-21491926D01*
X89317771Y-21263354D02*
X89851104Y-21263354D01*
X89508247Y-22063354D01*
X88022533Y-23803354D02*
X88098723Y-23803354D01*
X88174913Y-23841450D01*
X88213009Y-23879545D01*
X88251104Y-23955735D01*
X88289199Y-24108116D01*
X88289199Y-24298592D01*
X88251104Y-24450973D01*
X88213009Y-24527164D01*
X88174913Y-24565259D01*
X88098723Y-24603354D01*
X88022533Y-24603354D01*
X87946342Y-24565259D01*
X87908247Y-24527164D01*
X87870152Y-24450973D01*
X87832056Y-24298592D01*
X87832056Y-24108116D01*
X87870152Y-23955735D01*
X87908247Y-23879545D01*
X87946342Y-23841450D01*
X88022533Y-23803354D01*
X88593961Y-23879545D02*
X88632056Y-23841450D01*
X88708247Y-23803354D01*
X88898723Y-23803354D01*
X88974913Y-23841450D01*
X89013009Y-23879545D01*
X89051104Y-23955735D01*
X89051104Y-24031926D01*
X89013009Y-24146211D01*
X88555866Y-24603354D01*
X89051104Y-24603354D01*
X89546342Y-23803354D02*
X89622533Y-23803354D01*
X89698723Y-23841450D01*
X89736818Y-23879545D01*
X89774913Y-23955735D01*
X89813009Y-24108116D01*
X89813009Y-24298592D01*
X89774913Y-24450973D01*
X89736818Y-24527164D01*
X89698723Y-24565259D01*
X89622533Y-24603354D01*
X89546342Y-24603354D01*
X89470152Y-24565259D01*
X89432056Y-24527164D01*
X89393961Y-24450973D01*
X89355866Y-24298592D01*
X89355866Y-24108116D01*
X89393961Y-23955735D01*
X89432056Y-23879545D01*
X89470152Y-23841450D01*
X89546342Y-23803354D01*
X88213009Y-18761450D02*
X88136818Y-18723354D01*
X88022533Y-18723354D01*
X87908247Y-18761450D01*
X87832056Y-18837640D01*
X87793961Y-18913830D01*
X87755866Y-19066211D01*
X87755866Y-19180497D01*
X87793961Y-19332878D01*
X87832056Y-19409069D01*
X87908247Y-19485259D01*
X88022533Y-19523354D01*
X88098723Y-19523354D01*
X88213009Y-19485259D01*
X88251104Y-19447164D01*
X88251104Y-19180497D01*
X88098723Y-19180497D01*
X88593961Y-19523354D02*
X88593961Y-18723354D01*
X89051104Y-19523354D01*
X89051104Y-18723354D01*
X89432056Y-19523354D02*
X89432056Y-18723354D01*
X89622533Y-18723354D01*
X89736818Y-18761450D01*
X89813009Y-18837640D01*
X89851104Y-18913830D01*
X89889199Y-19066211D01*
X89889199Y-19180497D01*
X89851104Y-19332878D01*
X89813009Y-19409069D01*
X89736818Y-19485259D01*
X89622533Y-19523354D01*
X89432056Y-19523354D01*
X88213009Y-16221450D02*
X88136818Y-16183354D01*
X88022533Y-16183354D01*
X87908247Y-16221450D01*
X87832056Y-16297640D01*
X87793961Y-16373830D01*
X87755866Y-16526211D01*
X87755866Y-16640497D01*
X87793961Y-16792878D01*
X87832056Y-16869069D01*
X87908247Y-16945259D01*
X88022533Y-16983354D01*
X88098723Y-16983354D01*
X88213009Y-16945259D01*
X88251104Y-16907164D01*
X88251104Y-16640497D01*
X88098723Y-16640497D01*
X88593961Y-16983354D02*
X88593961Y-16183354D01*
X89051104Y-16983354D01*
X89051104Y-16183354D01*
X89432056Y-16983354D02*
X89432056Y-16183354D01*
X89622533Y-16183354D01*
X89736818Y-16221450D01*
X89813009Y-16297640D01*
X89851104Y-16373830D01*
X89889199Y-16526211D01*
X89889199Y-16640497D01*
X89851104Y-16792878D01*
X89813009Y-16869069D01*
X89736818Y-16945259D01*
X89622533Y-16983354D01*
X89432056Y-16983354D01*
X88022533Y-13643354D02*
X88098723Y-13643354D01*
X88174913Y-13681450D01*
X88213009Y-13719545D01*
X88251104Y-13795735D01*
X88289199Y-13948116D01*
X88289199Y-14138592D01*
X88251104Y-14290973D01*
X88213009Y-14367164D01*
X88174913Y-14405259D01*
X88098723Y-14443354D01*
X88022533Y-14443354D01*
X87946342Y-14405259D01*
X87908247Y-14367164D01*
X87870152Y-14290973D01*
X87832056Y-14138592D01*
X87832056Y-13948116D01*
X87870152Y-13795735D01*
X87908247Y-13719545D01*
X87946342Y-13681450D01*
X88022533Y-13643354D01*
X88784437Y-13643354D02*
X88860628Y-13643354D01*
X88936818Y-13681450D01*
X88974913Y-13719545D01*
X89013009Y-13795735D01*
X89051104Y-13948116D01*
X89051104Y-14138592D01*
X89013009Y-14290973D01*
X88974913Y-14367164D01*
X88936818Y-14405259D01*
X88860628Y-14443354D01*
X88784437Y-14443354D01*
X88708247Y-14405259D01*
X88670152Y-14367164D01*
X88632056Y-14290973D01*
X88593961Y-14138592D01*
X88593961Y-13948116D01*
X88632056Y-13795735D01*
X88670152Y-13719545D01*
X88708247Y-13681450D01*
X88784437Y-13643354D01*
X89508247Y-13986211D02*
X89432056Y-13948116D01*
X89393961Y-13910021D01*
X89355866Y-13833830D01*
X89355866Y-13795735D01*
X89393961Y-13719545D01*
X89432056Y-13681450D01*
X89508247Y-13643354D01*
X89660628Y-13643354D01*
X89736818Y-13681450D01*
X89774913Y-13719545D01*
X89813009Y-13795735D01*
X89813009Y-13833830D01*
X89774913Y-13910021D01*
X89736818Y-13948116D01*
X89660628Y-13986211D01*
X89508247Y-13986211D01*
X89432056Y-14024307D01*
X89393961Y-14062402D01*
X89355866Y-14138592D01*
X89355866Y-14290973D01*
X89393961Y-14367164D01*
X89432056Y-14405259D01*
X89508247Y-14443354D01*
X89660628Y-14443354D01*
X89736818Y-14405259D01*
X89774913Y-14367164D01*
X89813009Y-14290973D01*
X89813009Y-14138592D01*
X89774913Y-14062402D01*
X89736818Y-14024307D01*
X89660628Y-13986211D01*
X88022533Y-11103354D02*
X88098723Y-11103354D01*
X88174913Y-11141450D01*
X88213009Y-11179545D01*
X88251104Y-11255735D01*
X88289199Y-11408116D01*
X88289199Y-11598592D01*
X88251104Y-11750973D01*
X88213009Y-11827164D01*
X88174913Y-11865259D01*
X88098723Y-11903354D01*
X88022533Y-11903354D01*
X87946342Y-11865259D01*
X87908247Y-11827164D01*
X87870152Y-11750973D01*
X87832056Y-11598592D01*
X87832056Y-11408116D01*
X87870152Y-11255735D01*
X87908247Y-11179545D01*
X87946342Y-11141450D01*
X88022533Y-11103354D01*
X88784437Y-11103354D02*
X88860628Y-11103354D01*
X88936818Y-11141450D01*
X88974913Y-11179545D01*
X89013009Y-11255735D01*
X89051104Y-11408116D01*
X89051104Y-11598592D01*
X89013009Y-11750973D01*
X88974913Y-11827164D01*
X88936818Y-11865259D01*
X88860628Y-11903354D01*
X88784437Y-11903354D01*
X88708247Y-11865259D01*
X88670152Y-11827164D01*
X88632056Y-11750973D01*
X88593961Y-11598592D01*
X88593961Y-11408116D01*
X88632056Y-11255735D01*
X88670152Y-11179545D01*
X88708247Y-11141450D01*
X88784437Y-11103354D01*
X89736818Y-11103354D02*
X89584437Y-11103354D01*
X89508247Y-11141450D01*
X89470152Y-11179545D01*
X89393961Y-11293830D01*
X89355866Y-11446211D01*
X89355866Y-11750973D01*
X89393961Y-11827164D01*
X89432056Y-11865259D01*
X89508247Y-11903354D01*
X89660628Y-11903354D01*
X89736818Y-11865259D01*
X89774913Y-11827164D01*
X89813009Y-11750973D01*
X89813009Y-11560497D01*
X89774913Y-11484307D01*
X89736818Y-11446211D01*
X89660628Y-11408116D01*
X89508247Y-11408116D01*
X89432056Y-11446211D01*
X89393961Y-11484307D01*
X89355866Y-11560497D01*
%TO.C,BT1*%
X99804181Y-57865196D02*
X100185134Y-57205367D01*
X100324572Y-57725758D02*
X99664743Y-57344806D01*
X98788181Y-59624960D02*
X99169134Y-58965131D01*
%TD*%
M02*
